# MagicaVoxel @ ephtracy

# material
mtllib ankka.mtl
usemtl palette

# normals
vn -1 0 0
vn 1 0 0
vn 0 0 1
vn 0 0 -1
vn 0 -1 0
vn 0 1 0

# texcoords
vt 0.939453 0.5
vt 0.970703 0.5
vt 0.994141 0.5

# verts
v -7 11 1
v -7 11 -1
v -7 13 1
v -7 13 -1
v -4 4 2
v -4 4 -2
v -4 9 2
v -4 9 -2
v -4 11 2
v -4 11 1
v -4 11 -1
v -4 11 -2
v -4 13 1
v -4 13 -1
v -4 14 2
v -4 14 -2
v -3 0 3
v -3 0 1
v -3 0 -1
v -3 0 -3
v -3 1 3
v -3 1 1
v -3 1 -1
v -3 1 -3
v -3 3 2
v -3 3 -2
v -3 4 2
v -3 4 -2
v -3 5 3
v -3 5 2
v -3 5 -2
v -3 5 -3
v -3 7 3
v -3 7 2
v -3 7 -2
v -3 7 -3
v -3 9 1
v -3 9 -1
v -3 11 1
v -3 11 -1
v -2 4 3
v -2 4 2
v -2 4 -2
v -2 4 -3
v -2 5 3
v -2 5 2
v -2 5 -2
v -2 5 -3
v 0 1 2
v 0 1 1
v 0 1 -1
v 0 1 -2
v 0 3 2
v 0 3 1
v 0 3 -1
v 0 3 -2
v -1 8 2
v -1 8 1
v -1 8 -1
v -1 8 -2
v -1 9 2
v -1 9 1
v -1 9 -1
v -1 9 -2
v -1 11 1
v -1 11 -1
v 0 8 1
v 0 8 -1
v 0 9 1
v 0 9 -1
v 0 11 2
v 0 11 -2
v 0 14 2
v 0 14 -2
v 1 0 3
v 1 0 2
v 1 0 -2
v 1 0 -3
v 1 1 3
v 1 1 2
v 1 1 1
v 1 1 -1
v 1 1 -2
v 1 1 -3
v 1 3 2
v 1 3 1
v 1 3 -1
v 1 3 -2
v 2 0 2
v 2 0 1
v 2 0 -1
v 2 0 -2
v 2 1 2
v 2 1 1
v 2 1 -1
v 2 1 -2
v 2 6 3
v 2 6 2
v 2 6 -2
v 2 6 -3
v 2 7 3
v 2 7 2
v 2 7 -2
v 2 7 -3
v 2 8 2
v 2 8 -2
v 3 5 3
v 3 5 2
v 3 5 -2
v 3 5 -3
v 3 6 3
v 3 6 2
v 3 6 -2
v 3 6 -3
v 4 3 2
v 4 3 -2
v 4 4 3
v 4 4 2
v 4 4 -2
v 4 4 -3
v 4 5 3
v 4 5 2
v 4 5 -2
v 4 5 -3
v 5 4 2
v 5 4 -2
v 5 5 2
v 5 5 -2
v 6 5 2
v 6 5 1
v 6 5 -1
v 6 5 -2
v 6 7 2
v 6 7 1
v 6 7 -1
v 6 7 -2
v 7 5 1
v 7 5 -1
v 7 6 1
v 7 6 -1
v 8 6 1
v 8 6 -1
v 8 7 1
v 8 7 -1
v -3 0 3
v -3 1 3
v -3 5 3
v -3 7 3
v -2 4 3
v -2 5 3
v 1 0 3
v 1 1 3
v 2 6 3
v 2 7 3
v 3 5 3
v 3 6 3
v 4 4 3
v 4 5 3
v -4 4 2
v -4 9 2
v -4 11 2
v -4 14 2
v -3 3 2
v -3 4 2
v -3 5 2
v -3 7 2
v -3 12 2
v -3 13 2
v -2 4 2
v -2 5 2
v -2 12 2
v -2 13 2
v -1 8 2
v -1 9 2
v 0 1 2
v 0 3 2
v 0 11 2
v 0 14 2
v 1 0 2
v 1 1 2
v 1 3 2
v 2 0 2
v 2 1 2
v 2 6 2
v 2 7 2
v 2 8 2
v 3 5 2
v 3 6 2
v 4 3 2
v 4 4 2
v 4 5 2
v 5 4 2
v 5 5 2
v 6 5 2
v 6 7 2
v -7 11 1
v -7 13 1
v -4 11 1
v -4 13 1
v -3 9 1
v -3 11 1
v -1 8 1
v -1 9 1
v -1 11 1
v 0 8 1
v 0 9 1
v 6 5 1
v 6 7 1
v 7 5 1
v 7 6 1
v 8 6 1
v 8 7 1
v -3 0 -1
v -3 1 -1
v 0 1 -1
v 0 3 -1
v 1 1 -1
v 1 3 -1
v 2 0 -1
v 2 1 -1
v -3 0 1
v -3 1 1
v 0 1 1
v 0 3 1
v 1 1 1
v 1 3 1
v 2 0 1
v 2 1 1
v -7 11 -1
v -7 13 -1
v -4 11 -1
v -4 13 -1
v -3 9 -1
v -3 11 -1
v -1 8 -1
v -1 9 -1
v -1 11 -1
v 0 8 -1
v 0 9 -1
v 6 5 -1
v 6 7 -1
v 7 5 -1
v 7 6 -1
v 8 6 -1
v 8 7 -1
v -4 4 -2
v -4 9 -2
v -4 11 -2
v -4 14 -2
v -3 3 -2
v -3 4 -2
v -3 5 -2
v -3 7 -2
v -3 12 -2
v -3 13 -2
v -2 4 -2
v -2 5 -2
v -2 12 -2
v -2 13 -2
v -1 8 -2
v -1 9 -2
v 0 1 -2
v 0 3 -2
v 0 11 -2
v 0 14 -2
v 1 0 -2
v 1 1 -2
v 1 3 -2
v 2 0 -2
v 2 1 -2
v 2 6 -2
v 2 7 -2
v 2 8 -2
v 3 5 -2
v 3 6 -2
v 4 3 -2
v 4 4 -2
v 4 5 -2
v 5 4 -2
v 5 5 -2
v 6 5 -2
v 6 7 -2
v -3 0 -3
v -3 1 -3
v -3 5 -3
v -3 7 -3
v -2 4 -3
v -2 5 -3
v 1 0 -3
v 1 1 -3
v 2 6 -3
v 2 7 -3
v 3 5 -3
v 3 6 -3
v 4 4 -3
v 4 5 -3
v -3 0 3
v 1 0 3
v 1 0 2
v 2 0 2
v -3 0 1
v 2 0 1
v -3 0 -1
v 2 0 -1
v 1 0 -2
v 2 0 -2
v -3 0 -3
v 1 0 -3
v -3 3 2
v 0 3 2
v 1 3 2
v 4 3 2
v 0 3 1
v 1 3 1
v 0 3 -1
v 1 3 -1
v -3 3 -2
v 0 3 -2
v 1 3 -2
v 4 3 -2
v -2 4 3
v 4 4 3
v -4 4 2
v -3 4 2
v -2 4 2
v 4 4 2
v 5 4 2
v -4 4 -2
v -3 4 -2
v -2 4 -2
v 4 4 -2
v 5 4 -2
v -2 4 -3
v 4 4 -3
v -3 5 3
v -2 5 3
v -3 5 2
v -2 5 2
v 5 5 2
v 6 5 2
v 6 5 1
v 7 5 1
v 6 5 -1
v 7 5 -1
v -3 5 -2
v -2 5 -2
v 5 5 -2
v 6 5 -2
v -3 5 -3
v -2 5 -3
v 7 6 1
v 8 6 1
v 7 6 -1
v 8 6 -1
v -4 11 2
v 0 11 2
v -7 11 1
v -4 11 1
v -3 11 1
v -1 11 1
v -7 11 -1
v -4 11 -1
v -3 11 -1
v -1 11 -1
v -4 11 -2
v 0 11 -2
v -3 1 3
v 1 1 3
v 0 1 2
v 1 1 2
v 2 1 2
v -3 1 1
v 0 1 1
v 1 1 1
v 2 1 1
v -3 1 -1
v 0 1 -1
v 1 1 -1
v 2 1 -1
v 0 1 -2
v 1 1 -2
v 2 1 -2
v -3 1 -3
v 1 1 -3
v 3 5 3
v 4 5 3
v 3 5 2
v 4 5 2
v 3 5 -2
v 4 5 -2
v 3 5 -3
v 4 5 -3
v 2 6 3
v 3 6 3
v 2 6 2
v 3 6 2
v 2 6 -2
v 3 6 -2
v 2 6 -3
v 3 6 -3
v -3 7 3
v 2 7 3
v -3 7 2
v 2 7 2
v 6 7 2
v 6 7 1
v 8 7 1
v 6 7 -1
v 8 7 -1
v -3 7 -2
v 2 7 -2
v 6 7 -2
v -3 7 -3
v 2 7 -3
v -1 8 2
v 2 8 2
v -1 8 1
v 0 8 1
v -1 8 -1
v 0 8 -1
v -1 8 -2
v 2 8 -2
v -4 9 2
v -1 9 2
v -3 9 1
v -1 9 1
v 0 9 1
v -3 9 -1
v -1 9 -1
v 0 9 -1
v -4 9 -2
v -1 9 -2
v -7 13 1
v -4 13 1
v -7 13 -1
v -4 13 -1
v -4 14 2
v 0 14 2
v -4 14 -2
v 0 14 -2

# faces
f 3/1/1 2/1/1 1/1/1
f 4/1/1 2/1/1 3/1/1
f 7/2/1 6/2/1 5/2/1
f 8/2/1 6/2/1 7/2/1
f 13/2/1 10/2/1 9/2/1
f 14/2/1 12/2/1 11/2/1
f 15/2/1 13/2/1 9/2/1
f 15/2/1 14/2/1 13/2/1
f 16/2/1 12/2/1 14/2/1
f 16/2/1 14/2/1 15/2/1
f 21/1/1 18/1/1 17/1/1
f 22/1/1 18/1/1 21/1/1
f 23/1/1 20/1/1 19/1/1
f 24/1/1 20/1/1 23/1/1
f 27/2/1 26/2/1 25/2/1
f 28/2/1 26/2/1 27/2/1
f 33/2/1 30/2/1 29/2/1
f 34/2/1 30/2/1 33/2/1
f 35/2/1 32/2/1 31/2/1
f 36/2/1 32/2/1 35/2/1
f 39/2/1 38/2/1 37/2/1
f 40/2/1 38/2/1 39/2/1
f 45/2/1 42/2/1 41/2/1
f 46/2/1 42/2/1 45/2/1
f 47/2/1 44/2/1 43/2/1
f 48/2/1 44/2/1 47/2/1
f 53/1/1 50/1/1 49/1/1
f 54/1/1 50/1/1 53/1/1
f 55/1/1 52/1/1 51/1/1
f 56/1/1 52/1/1 55/1/1
f 57/2/2 58/2/2 61/2/2
f 61/2/2 58/2/2 62/2/2
f 59/2/2 60/2/2 63/2/2
f 63/2/2 60/2/2 64/2/2
f 62/2/2 63/2/2 65/2/2
f 65/2/2 63/2/2 66/2/2
f 67/2/2 68/2/2 69/2/2
f 69/2/2 68/2/2 70/2/2
f 71/2/2 72/2/2 73/2/2
f 73/2/2 72/2/2 74/2/2
f 75/1/2 76/1/2 79/1/2
f 79/1/2 76/1/2 80/1/2
f 77/1/2 78/1/2 83/1/2
f 83/1/2 78/1/2 84/1/2
f 80/1/2 81/1/2 85/1/2
f 85/1/2 81/1/2 86/1/2
f 82/1/2 83/1/2 87/1/2
f 87/1/2 83/1/2 88/1/2
f 89/1/2 90/1/2 93/1/2
f 93/1/2 90/1/2 94/1/2
f 91/1/2 92/1/2 95/1/2
f 95/1/2 92/1/2 96/1/2
f 97/2/2 98/2/2 101/2/2
f 101/2/2 98/2/2 102/2/2
f 99/2/2 100/2/2 103/2/2
f 103/2/2 100/2/2 104/2/2
f 102/2/2 103/2/2 105/2/2
f 105/2/2 103/2/2 106/2/2
f 107/2/2 108/2/2 111/2/2
f 111/2/2 108/2/2 112/2/2
f 109/2/2 110/2/2 113/2/2
f 113/2/2 110/2/2 114/2/2
f 115/2/2 116/2/2 118/2/2
f 118/2/2 116/2/2 119/2/2
f 117/2/2 118/2/2 121/2/2
f 121/2/2 118/2/2 122/2/2
f 119/2/2 120/2/2 123/2/2
f 123/2/2 120/2/2 124/2/2
f 125/2/2 126/2/2 127/2/2
f 127/2/2 126/2/2 128/2/2
f 129/2/2 130/2/2 133/2/2
f 133/2/2 130/2/2 134/2/2
f 131/2/2 132/2/2 135/2/2
f 135/2/2 132/2/2 136/2/2
f 137/2/2 138/2/2 139/2/2
f 139/2/2 138/2/2 140/2/2
f 141/2/2 142/2/2 143/2/2
f 143/2/2 142/2/2 144/2/2
f 150/2/3 148/2/3 147/2/3
f 151/1/3 146/1/3 145/1/3
f 152/1/3 146/1/3 151/1/3
f 153/2/3 150/2/3 149/2/3
f 153/2/3 148/2/3 150/2/3
f 154/2/3 148/2/3 153/2/3
f 155/2/3 153/2/3 149/2/3
f 156/2/3 153/2/3 155/2/3
f 157/2/3 155/2/3 149/2/3
f 158/2/3 155/2/3 157/2/3
f 164/2/3 160/2/3 159/2/3
f 165/2/3 160/2/3 164/2/3
f 166/2/3 160/2/3 165/2/3
f 167/2/3 162/2/3 161/2/3
f 168/2/3 162/2/3 167/2/3
f 169/2/3 164/2/3 163/2/3
f 169/2/3 165/2/3 164/2/3
f 170/2/3 165/2/3 169/2/3
f 171/3/3 168/3/3 167/3/3
f 171/2/3 167/2/3 161/2/3
f 172/2/3 162/2/3 168/2/3
f 172/3/3 168/3/3 171/3/3
f 173/2/3 160/2/3 166/2/3
f 174/2/3 160/2/3 173/2/3
f 176/2/3 169/2/3 163/2/3
f 177/2/3 171/2/3 161/2/3
f 177/2/3 172/2/3 171/2/3
f 178/2/3 162/2/3 172/2/3
f 178/2/3 172/2/3 177/2/3
f 180/1/3 176/1/3 175/1/3
f 181/2/3 169/2/3 176/2/3
f 181/1/3 176/1/3 180/1/3
f 182/1/3 180/1/3 179/1/3
f 183/1/3 180/1/3 182/1/3
f 185/2/3 173/2/3 166/2/3
f 186/2/3 173/2/3 185/2/3
f 188/2/3 185/2/3 184/2/3
f 189/2/3 169/2/3 181/2/3
f 190/2/3 169/2/3 189/2/3
f 191/2/3 188/2/3 187/2/3
f 192/2/3 191/2/3 190/2/3
f 193/2/3 188/2/3 191/2/3
f 193/2/3 191/2/3 192/2/3
f 194/2/3 188/2/3 193/2/3
f 195/2/3 185/2/3 188/2/3
f 195/2/3 188/2/3 194/2/3
f 198/1/3 197/1/3 196/1/3
f 199/1/3 197/1/3 198/1/3
f 203/2/3 201/2/3 200/2/3
f 204/2/3 201/2/3 203/2/3
f 205/2/3 203/2/3 202/2/3
f 206/2/3 203/2/3 205/2/3
f 209/2/3 208/2/3 207/2/3
f 210/2/3 208/2/3 209/2/3
f 211/2/3 208/2/3 210/2/3
f 212/2/3 208/2/3 211/2/3
f 215/1/3 214/1/3 213/1/3
f 217/1/3 215/1/3 213/1/3
f 217/1/3 216/1/3 215/1/3
f 218/1/3 216/1/3 217/1/3
f 219/1/3 217/1/3 213/1/3
f 220/1/3 217/1/3 219/1/3
f 221/1/4 222/1/4 223/1/4
f 221/1/4 223/1/4 225/1/4
f 223/1/4 224/1/4 225/1/4
f 225/1/4 224/1/4 226/1/4
f 221/1/4 225/1/4 227/1/4
f 227/1/4 225/1/4 228/1/4
f 229/1/4 230/1/4 231/1/4
f 231/1/4 230/1/4 232/1/4
f 233/2/4 234/2/4 236/2/4
f 236/2/4 234/2/4 237/2/4
f 235/2/4 236/2/4 238/2/4
f 238/2/4 236/2/4 239/2/4
f 240/2/4 241/2/4 242/2/4
f 242/2/4 241/2/4 243/2/4
f 243/2/4 241/2/4 244/2/4
f 244/2/4 241/2/4 245/2/4
f 246/2/4 247/2/4 251/2/4
f 251/2/4 247/2/4 252/2/4
f 252/2/4 247/2/4 253/2/4
f 248/2/4 249/2/4 254/2/4
f 254/2/4 249/2/4 255/2/4
f 250/2/4 251/2/4 256/2/4
f 251/2/4 252/2/4 256/2/4
f 256/2/4 252/2/4 257/2/4
f 254/3/4 255/3/4 258/3/4
f 248/2/4 254/2/4 258/2/4
f 255/2/4 249/2/4 259/2/4
f 258/3/4 255/3/4 259/3/4
f 253/2/4 247/2/4 260/2/4
f 260/2/4 247/2/4 261/2/4
f 250/2/4 256/2/4 263/2/4
f 248/2/4 258/2/4 264/2/4
f 258/2/4 259/2/4 264/2/4
f 259/2/4 249/2/4 265/2/4
f 264/2/4 259/2/4 265/2/4
f 262/1/4 263/1/4 267/1/4
f 263/2/4 256/2/4 268/2/4
f 267/1/4 263/1/4 268/1/4
f 266/1/4 267/1/4 269/1/4
f 269/1/4 267/1/4 270/1/4
f 253/2/4 260/2/4 272/2/4
f 272/2/4 260/2/4 273/2/4
f 271/2/4 272/2/4 275/2/4
f 268/2/4 256/2/4 276/2/4
f 276/2/4 256/2/4 277/2/4
f 274/2/4 275/2/4 278/2/4
f 277/2/4 278/2/4 279/2/4
f 278/2/4 275/2/4 280/2/4
f 279/2/4 278/2/4 280/2/4
f 280/2/4 275/2/4 281/2/4
f 275/2/4 272/2/4 282/2/4
f 281/2/4 275/2/4 282/2/4
f 285/2/4 286/2/4 288/2/4
f 283/1/4 284/1/4 289/1/4
f 289/1/4 284/1/4 290/1/4
f 287/2/4 288/2/4 291/2/4
f 288/2/4 286/2/4 291/2/4
f 291/2/4 286/2/4 292/2/4
f 287/2/4 291/2/4 293/2/4
f 293/2/4 291/2/4 294/2/4
f 287/2/4 293/2/4 295/2/4
f 295/2/4 293/2/4 296/2/4
f 299/1/5 298/1/5 297/1/5
f 301/1/5 299/1/5 297/1/5
f 301/1/5 300/1/5 299/1/5
f 302/1/5 300/1/5 301/1/5
f 305/1/5 304/1/5 303/1/5
f 306/1/5 304/1/5 305/1/5
f 307/1/5 305/1/5 303/1/5
f 308/1/5 305/1/5 307/1/5
f 313/2/5 310/2/5 309/2/5
f 314/2/5 312/2/5 311/2/5
f 315/2/5 313/2/5 309/2/5
f 315/2/5 314/2/5 313/2/5
f 316/2/5 312/2/5 314/2/5
f 316/2/5 314/2/5 315/2/5
f 317/2/5 315/2/5 309/2/5
f 318/2/5 315/2/5 317/2/5
f 319/2/5 312/2/5 316/2/5
f 320/2/5 312/2/5 319/2/5
f 325/2/5 322/2/5 321/2/5
f 326/2/5 322/2/5 325/2/5
f 328/2/5 324/2/5 323/2/5
f 329/2/5 324/2/5 328/2/5
f 331/2/5 327/2/5 326/2/5
f 332/2/5 327/2/5 331/2/5
f 333/2/5 331/2/5 330/2/5
f 334/2/5 331/2/5 333/2/5
f 337/2/5 336/2/5 335/2/5
f 338/2/5 336/2/5 337/2/5
f 341/2/5 340/2/5 339/2/5
f 343/2/5 341/2/5 339/2/5
f 343/2/5 342/2/5 341/2/5
f 344/2/5 342/2/5 343/2/5
f 347/2/5 343/2/5 339/2/5
f 348/2/5 343/2/5 347/2/5
f 349/2/5 346/2/5 345/2/5
f 350/2/5 346/2/5 349/2/5
f 353/2/5 352/2/5 351/2/5
f 354/2/5 352/2/5 353/2/5
f 358/2/5 356/2/5 355/2/5
f 359/2/5 356/2/5 358/2/5
f 360/2/5 356/2/5 359/2/5
f 361/1/5 358/1/5 357/1/5
f 362/2/5 359/2/5 358/2/5
f 362/1/5 358/1/5 361/1/5
f 363/2/5 359/2/5 362/2/5
f 364/2/5 356/2/5 360/2/5
f 365/2/5 363/2/5 362/2/5
f 365/2/5 364/2/5 363/2/5
f 366/2/5 356/2/5 364/2/5
f 366/2/5 364/2/5 365/2/5
f 367/1/6 368/1/6 369/1/6
f 369/1/6 368/1/6 370/1/6
f 367/1/6 369/1/6 372/1/6
f 372/1/6 369/1/6 373/1/6
f 370/1/6 371/1/6 374/1/6
f 374/1/6 371/1/6 375/1/6
f 376/1/6 377/1/6 380/1/6
f 378/1/6 379/1/6 381/1/6
f 381/1/6 379/1/6 382/1/6
f 376/1/6 380/1/6 383/1/6
f 380/1/6 381/1/6 383/1/6
f 383/1/6 381/1/6 384/1/6
f 385/2/6 386/2/6 387/2/6
f 387/2/6 386/2/6 388/2/6
f 389/2/6 390/2/6 391/2/6
f 391/2/6 390/2/6 392/2/6
f 393/2/6 394/2/6 395/2/6
f 395/2/6 394/2/6 396/2/6
f 397/2/6 398/2/6 399/2/6
f 399/2/6 398/2/6 400/2/6
f 401/2/6 402/2/6 403/2/6
f 403/2/6 402/2/6 404/2/6
f 404/2/6 405/2/6 406/2/6
f 404/2/6 406/2/6 408/2/6
f 406/2/6 407/2/6 408/2/6
f 408/2/6 407/2/6 409/2/6
f 404/2/6 408/2/6 411/2/6
f 411/2/6 408/2/6 412/2/6
f 410/2/6 411/2/6 413/2/6
f 413/2/6 411/2/6 414/2/6
f 415/2/6 416/2/6 417/2/6
f 417/2/6 416/2/6 418/2/6
f 418/2/6 416/2/6 420/2/6
f 419/2/6 420/2/6 421/2/6
f 420/2/6 416/2/6 422/2/6
f 421/2/6 420/2/6 422/2/6
f 423/2/6 424/2/6 425/2/6
f 425/2/6 424/2/6 426/2/6
f 423/2/6 425/2/6 428/2/6
f 426/2/6 427/2/6 429/2/6
f 429/2/6 427/2/6 430/2/6
f 423/2/6 428/2/6 431/2/6
f 428/2/6 429/2/6 431/2/6
f 431/2/6 429/2/6 432/2/6
f 433/1/6 434/1/6 435/1/6
f 435/1/6 434/1/6 436/1/6
f 437/2/6 438/2/6 439/2/6
f 439/2/6 438/2/6 440/2/6
