# MagicaVoxel @ ephtracy

# material
mtllib auto.mtl
usemtl palette

# normals
vn -1 0 0
vn 1 0 0
vn 0 0 1
vn 0 0 -1
vn 0 -1 0
vn 0 1 0

# texcoords
vt 0.849609 0.5
vt 0.857422 0.5
vt 0.861328 0.5
vt 0.865234 0.5
vt 0.939453 0.5

# verts
v -16 0 24
v -16 0 15
v -16 0 -17
v -16 0 -26
v -16 2 22
v -16 2 17
v -16 3 15
v -16 3 14
v -16 3 -16
v -16 3 -17
v -16 3 -19
v -16 3 -24
v -16 3 -26
v -16 3 -27
v -16 3 -31
v -16 4 32
v -16 4 24
v -16 7 22
v -16 7 17
v -16 8 -19
v -16 8 -24
v -16 9 24
v -16 9 14
v -16 10 -16
v -16 10 -27
v -16 17 -1
v -16 17 -14
v -16 17 -17
v -16 17 -31
v -16 30 -1
v -16 30 -14
v -16 32 32
v -16 32 -17
v -15 3 25
v -15 3 24
v -15 4 25
v -15 4 24
v -13 11 -31
v -13 11 -32
v -13 15 -31
v -13 15 -32
v -13 17 -17
v -13 17 -18
v -13 30 -17
v -13 30 -18
v 8 11 -31
v 8 11 -32
v 8 15 -31
v 8 15 -32
v 12 0 -17
v 12 0 -26
v 12 3 -17
v 12 3 -26
v 13 0 24
v 13 0 23
v 13 0 16
v 13 1 23
v 13 1 16
v 13 1 15
v 13 3 25
v 13 3 24
v 13 3 15
v 13 4 25
v 13 4 15
v -13 0 24
v -13 0 23
v -13 0 16
v -13 1 23
v -13 1 16
v -13 1 15
v -13 3 25
v -13 3 24
v -13 3 15
v -13 4 25
v -13 4 15
v -12 0 -17
v -12 0 -26
v -12 3 -17
v -12 3 -26
v -8 11 -31
v -8 11 -32
v -8 15 -31
v -8 15 -32
v 13 11 -31
v 13 11 -32
v 13 15 -31
v 13 15 -32
v 13 17 -17
v 13 17 -18
v 13 30 -17
v 13 30 -18
v 16 0 24
v 16 0 15
v 16 0 -17
v 16 0 -26
v 16 3 25
v 16 3 24
v 16 3 22
v 16 3 17
v 16 3 15
v 16 3 14
v 16 3 -16
v 16 3 -17
v 16 3 -19
v 16 3 -25
v 16 3 -26
v 16 3 -28
v 16 3 -31
v 16 4 32
v 16 4 25
v 16 8 22
v 16 8 17
v 16 8 -19
v 16 8 -25
v 16 10 25
v 16 10 14
v 16 10 -16
v 16 10 -28
v 16 17 -0
v 16 17 -14
v 16 17 -17
v 16 17 -31
v 16 30 -0
v 16 30 -14
v 16 32 32
v 16 32 -17
v -16 4 32
v -16 32 32
v -13 17 32
v -13 30 32
v 13 17 32
v 13 30 32
v 16 4 32
v 16 32 32
v -15 3 25
v -15 4 25
v -13 3 25
v -13 4 25
v 13 3 25
v 13 4 25
v 15 4 25
v 16 3 25
v 16 4 25
v -16 0 24
v -16 4 24
v -15 3 24
v -15 4 24
v -13 0 24
v -13 3 24
v 13 0 24
v 13 3 24
v 16 0 24
v 16 3 24
v -13 0 16
v -13 1 16
v 13 0 16
v 13 1 16
v -13 3 15
v -13 4 15
v 13 3 15
v 13 4 15
v -16 0 -17
v -16 3 -17
v -12 0 -17
v -12 3 -17
v 12 0 -17
v 12 3 -17
v 16 0 -17
v 16 3 -17
v -16 0 15
v -16 3 15
v -13 1 15
v -13 3 15
v 13 1 15
v 13 3 15
v 16 0 15
v 16 3 15
v -16 17 -17
v -16 32 -17
v -13 17 -17
v -13 30 -17
v 13 17 -17
v 13 30 -17
v 16 17 -17
v 16 32 -17
v -13 17 -18
v -13 30 -18
v 13 17 -18
v 13 30 -18
v -16 0 -26
v -16 3 -26
v -12 0 -26
v -12 3 -26
v 12 0 -26
v 12 3 -26
v 16 0 -26
v 16 3 -26
v -16 3 -31
v -16 17 -31
v -13 11 -31
v -13 15 -31
v -8 11 -31
v -8 15 -31
v 8 11 -31
v 8 15 -31
v 13 11 -31
v 13 15 -31
v 16 3 -31
v 16 17 -31
v -13 11 -32
v -13 15 -32
v -8 11 -32
v -8 15 -32
v 8 11 -32
v 8 15 -32
v 13 11 -32
v 13 15 -32
v -16 0 24
v -13 0 24
v 13 0 24
v 16 0 24
v -15 0 23
v -13 0 23
v 13 0 23
v 15 0 23
v -15 0 16
v -13 0 16
v 13 0 16
v 15 0 16
v -16 0 15
v 16 0 15
v -16 0 -17
v -12 0 -17
v 12 0 -17
v 16 0 -17
v -15 0 -18
v -13 0 -18
v 13 0 -18
v 15 0 -18
v -15 0 -25
v -13 0 -25
v 13 0 -25
v 15 0 -25
v -16 0 -26
v -12 0 -26
v 12 0 -26
v 16 0 -26
v -15 3 25
v -13 3 25
v 13 3 25
v 16 3 25
v -15 3 24
v -13 3 24
v 13 3 24
v 16 3 24
v -16 3 15
v -13 3 15
v 13 3 15
v 16 3 15
v -16 3 14
v 16 3 14
v -16 3 -16
v 16 3 -16
v -16 3 -17
v -12 3 -17
v 12 3 -17
v 16 3 -17
v -16 3 -26
v -12 3 -26
v 12 3 -26
v 16 3 -26
v -16 3 -27
v -15 3 -27
v 15 3 -28
v 16 3 -28
v -15 3 -30
v 15 3 -30
v -16 3 -31
v 16 3 -31
v -16 4 32
v 16 4 32
v -15 4 31
v 15 4 31
v -15 4 25
v -13 4 25
v 13 4 25
v 15 4 25
v 16 4 25
v -16 4 24
v -15 4 24
v -13 4 15
v 13 4 15
v -13 11 -31
v -8 11 -31
v 8 11 -31
v 13 11 -31
v -13 11 -32
v -8 11 -32
v 8 11 -32
v 13 11 -32
v -13 1 16
v 13 1 16
v -13 1 15
v 13 1 15
v -13 15 -31
v -8 15 -31
v 8 15 -31
v 13 15 -31
v -13 15 -32
v -8 15 -32
v 8 15 -32
v 13 15 -32
v -16 17 -17
v -13 17 -17
v 13 17 -17
v 16 17 -17
v -13 17 -18
v 13 17 -18
v -16 17 -31
v 16 17 -31
v -13 30 -17
v 13 30 -17
v -13 30 -18
v 13 30 -18
v -16 32 32
v 16 32 32
v -16 32 -17
v 16 32 -17

# faces
f 5/2/1 2/2/1 1/2/1
f 6/2/1 2/2/1 5/2/1
f 7/2/1 2/2/1 6/2/1
f 10/2/1 4/2/1 3/2/1
f 11/2/1 4/2/1 10/2/1
f 12/2/1 4/2/1 11/2/1
f 13/2/1 4/2/1 12/2/1
f 17/2/1 5/2/1 1/2/1
f 18/1/1 6/1/1 5/1/1
f 18/2/1 5/2/1 17/2/1
f 19/2/1 7/2/1 6/2/1
f 19/1/1 6/1/1 18/1/1
f 19/2/1 8/2/1 7/2/1
f 20/2/1 10/2/1 9/2/1
f 20/2/1 11/2/1 10/2/1
f 20/1/1 12/1/1 11/1/1
f 21/2/1 14/2/1 13/2/1
f 21/1/1 12/1/1 20/1/1
f 21/2/1 13/2/1 12/2/1
f 22/4/1 17/4/1 16/4/1
f 22/2/1 18/2/1 17/2/1
f 22/2/1 19/2/1 18/2/1
f 23/4/1 9/4/1 8/4/1
f 23/2/1 19/2/1 22/2/1
f 23/2/1 8/2/1 19/2/1
f 24/2/1 21/2/1 20/2/1
f 24/4/1 9/4/1 23/4/1
f 24/4/1 23/4/1 22/4/1
f 24/2/1 20/2/1 9/2/1
f 25/4/1 15/4/1 14/4/1
f 25/2/1 21/2/1 24/2/1
f 25/2/1 14/2/1 21/2/1
f 26/4/1 24/4/1 22/4/1
f 26/4/1 25/4/1 24/4/1
f 27/4/1 25/4/1 26/4/1
f 28/4/1 25/4/1 27/4/1
f 29/4/1 15/4/1 25/4/1
f 29/4/1 25/4/1 28/4/1
f 30/4/1 26/4/1 22/4/1
f 30/3/1 27/3/1 26/3/1
f 31/4/1 28/4/1 27/4/1
f 31/3/1 27/3/1 30/3/1
f 32/4/1 22/4/1 16/4/1
f 32/4/1 30/4/1 22/4/1
f 32/4/1 31/4/1 30/4/1
f 33/4/1 28/4/1 31/4/1
f 33/4/1 31/4/1 32/4/1
f 36/2/1 35/2/1 34/2/1
f 37/2/1 35/2/1 36/2/1
f 40/5/1 39/5/1 38/5/1
f 41/5/1 39/5/1 40/5/1
f 44/3/1 43/3/1 42/3/1
f 45/3/1 43/3/1 44/3/1
f 48/5/1 47/5/1 46/5/1
f 49/5/1 47/5/1 48/5/1
f 52/2/1 51/2/1 50/2/1
f 53/2/1 51/2/1 52/2/1
f 57/2/1 55/2/1 54/2/1
f 57/4/1 56/4/1 55/4/1
f 58/4/1 56/4/1 57/4/1
f 61/2/1 57/2/1 54/2/1
f 61/2/1 59/2/1 58/2/1
f 61/2/1 58/2/1 57/2/1
f 62/2/1 59/2/1 61/2/1
f 63/2/1 61/2/1 60/2/1
f 63/2/1 62/2/1 61/2/1
f 64/2/1 62/2/1 63/2/1
f 65/2/2 66/2/2 68/2/2
f 66/4/2 67/4/2 68/4/2
f 68/4/2 67/4/2 69/4/2
f 65/2/2 68/2/2 72/2/2
f 69/2/2 70/2/2 72/2/2
f 68/2/2 69/2/2 72/2/2
f 72/2/2 70/2/2 73/2/2
f 71/2/2 72/2/2 74/2/2
f 72/2/2 73/2/2 74/2/2
f 74/2/2 73/2/2 75/2/2
f 76/2/2 77/2/2 78/2/2
f 78/2/2 77/2/2 79/2/2
f 80/5/2 81/5/2 82/5/2
f 82/5/2 81/5/2 83/5/2
f 84/5/2 85/5/2 86/5/2
f 86/5/2 85/5/2 87/5/2
f 88/3/2 89/3/2 90/3/2
f 90/3/2 89/3/2 91/3/2
f 92/2/2 93/2/2 97/2/2
f 97/2/2 93/2/2 98/2/2
f 98/2/2 93/2/2 99/2/2
f 99/2/2 93/2/2 100/2/2
f 94/2/2 95/2/2 103/2/2
f 103/2/2 95/2/2 104/2/2
f 104/2/2 95/2/2 105/2/2
f 105/2/2 95/2/2 106/2/2
f 96/2/2 97/2/2 110/2/2
f 97/2/2 98/2/2 110/2/2
f 98/1/2 99/1/2 111/1/2
f 110/2/2 98/2/2 111/2/2
f 99/2/2 100/2/2 112/2/2
f 111/1/2 99/1/2 112/1/2
f 100/2/2 101/2/2 112/2/2
f 102/2/2 103/2/2 113/2/2
f 103/2/2 104/2/2 113/2/2
f 104/1/2 105/1/2 113/1/2
f 106/2/2 107/2/2 114/2/2
f 113/1/2 105/1/2 114/1/2
f 105/2/2 106/2/2 114/2/2
f 109/4/2 110/4/2 115/4/2
f 110/2/2 111/2/2 115/2/2
f 111/2/2 112/2/2 115/2/2
f 101/4/2 102/4/2 116/4/2
f 115/2/2 112/2/2 116/2/2
f 112/2/2 101/2/2 116/2/2
f 102/2/2 113/2/2 117/2/2
f 116/4/2 102/4/2 117/4/2
f 113/2/2 114/2/2 117/2/2
f 107/4/2 108/4/2 118/4/2
f 117/2/2 114/2/2 118/2/2
f 114/2/2 107/2/2 118/2/2
f 116/4/2 117/4/2 119/4/2
f 115/4/2 116/4/2 119/4/2
f 117/4/2 118/4/2 119/4/2
f 119/4/2 118/4/2 120/4/2
f 120/4/2 118/4/2 121/4/2
f 118/4/2 108/4/2 122/4/2
f 121/4/2 118/4/2 122/4/2
f 115/4/2 119/4/2 123/4/2
f 119/3/2 120/3/2 123/3/2
f 120/4/2 121/4/2 124/4/2
f 123/3/2 120/3/2 124/3/2
f 109/4/2 115/4/2 125/4/2
f 115/4/2 123/4/2 125/4/2
f 123/4/2 124/4/2 125/4/2
f 124/4/2 121/4/2 126/4/2
f 125/4/2 124/4/2 126/4/2
f 129/4/3 128/4/3 127/4/3
f 130/4/3 128/4/3 129/4/3
f 131/4/3 129/4/3 127/4/3
f 131/3/3 130/3/3 129/3/3
f 132/4/3 128/4/3 130/4/3
f 132/3/3 130/3/3 131/3/3
f 133/4/3 131/4/3 127/4/3
f 133/4/3 132/4/3 131/4/3
f 134/4/3 128/4/3 132/4/3
f 134/4/3 132/4/3 133/4/3
f 137/2/3 136/2/3 135/2/3
f 138/2/3 136/2/3 137/2/3
f 141/2/3 140/2/3 139/2/3
f 142/2/3 141/2/3 139/2/3
f 143/2/3 141/2/3 142/2/3
f 146/2/3 145/2/3 144/2/3
f 147/2/3 145/2/3 146/2/3
f 148/2/3 146/2/3 144/2/3
f 149/2/3 146/2/3 148/2/3
f 152/2/3 151/2/3 150/2/3
f 153/2/3 151/2/3 152/2/3
f 156/2/3 155/2/3 154/2/3
f 157/2/3 155/2/3 156/2/3
f 160/2/3 159/2/3 158/2/3
f 161/2/3 159/2/3 160/2/3
f 164/2/3 163/2/3 162/2/3
f 165/2/3 163/2/3 164/2/3
f 168/2/3 167/2/3 166/2/3
f 169/2/3 167/2/3 168/2/3
f 170/2/4 171/2/4 172/2/4
f 172/2/4 171/2/4 173/2/4
f 170/2/4 172/2/4 174/2/4
f 170/2/4 174/2/4 176/2/4
f 174/2/4 175/2/4 176/2/4
f 176/2/4 175/2/4 177/2/4
f 178/4/4 179/4/4 180/4/4
f 180/4/4 179/4/4 181/4/4
f 181/4/4 179/4/4 183/4/4
f 182/4/4 183/4/4 184/4/4
f 183/4/4 179/4/4 185/4/4
f 184/4/4 183/4/4 185/4/4
f 186/3/4 187/3/4 188/3/4
f 188/3/4 187/3/4 189/3/4
f 190/2/4 191/2/4 192/2/4
f 192/2/4 191/2/4 193/2/4
f 194/2/4 195/2/4 196/2/4
f 196/2/4 195/2/4 197/2/4
f 198/4/4 199/4/4 200/4/4
f 200/4/4 199/4/4 201/4/4
f 198/4/4 200/4/4 202/4/4
f 201/4/4 199/4/4 203/4/4
f 198/4/4 202/4/4 204/4/4
f 202/4/4 203/4/4 204/4/4
f 203/4/4 199/4/4 205/4/4
f 204/4/4 203/4/4 205/4/4
f 198/4/4 204/4/4 206/4/4
f 205/4/4 199/4/4 207/4/4
f 198/4/4 206/4/4 208/4/4
f 206/4/4 207/4/4 208/4/4
f 207/4/4 199/4/4 209/4/4
f 208/4/4 207/4/4 209/4/4
f 210/5/4 211/5/4 212/5/4
f 212/5/4 211/5/4 213/5/4
f 214/5/4 215/5/4 216/5/4
f 216/5/4 215/5/4 217/5/4
f 222/2/5 219/2/5 218/2/5
f 223/2/5 219/2/5 222/2/5
f 224/2/5 221/2/5 220/2/5
f 225/2/5 221/2/5 224/2/5
f 226/4/5 223/4/5 222/4/5
f 226/2/5 222/2/5 218/2/5
f 227/4/5 223/4/5 226/4/5
f 228/4/5 225/4/5 224/4/5
f 229/2/5 221/2/5 225/2/5
f 229/4/5 225/4/5 228/4/5
f 230/2/5 228/2/5 227/2/5
f 230/2/5 227/2/5 226/2/5
f 230/2/5 229/2/5 228/2/5
f 230/2/5 226/2/5 218/2/5
f 231/2/5 221/2/5 229/2/5
f 231/2/5 229/2/5 230/2/5
f 236/2/5 233/2/5 232/2/5
f 237/2/5 233/2/5 236/2/5
f 238/2/5 235/2/5 234/2/5
f 239/2/5 235/2/5 238/2/5
f 240/2/5 236/2/5 232/2/5
f 240/4/5 237/4/5 236/4/5
f 241/2/5 233/2/5 237/2/5
f 241/4/5 237/4/5 240/4/5
f 242/4/5 239/4/5 238/4/5
f 242/2/5 238/2/5 234/2/5
f 243/2/5 235/2/5 239/2/5
f 243/4/5 239/4/5 242/4/5
f 244/2/5 240/2/5 232/2/5
f 244/2/5 241/2/5 240/2/5
f 245/2/5 233/2/5 241/2/5
f 245/2/5 241/2/5 244/2/5
f 246/2/5 242/2/5 234/2/5
f 246/2/5 243/2/5 242/2/5
f 247/2/5 235/2/5 243/2/5
f 247/2/5 243/2/5 246/2/5
f 252/2/5 249/2/5 248/2/5
f 253/2/5 249/2/5 252/2/5
f 254/2/5 251/2/5 250/2/5
f 255/2/5 251/2/5 254/2/5
f 260/2/5 257/2/5 256/2/5
f 260/2/5 259/2/5 258/2/5
f 260/2/5 258/2/5 257/2/5
f 261/2/5 259/2/5 260/2/5
f 262/4/5 261/4/5 260/4/5
f 263/4/5 261/4/5 262/4/5
f 264/2/5 263/2/5 262/2/5
f 265/2/5 263/2/5 264/2/5
f 266/2/5 263/2/5 265/2/5
f 267/2/5 263/2/5 266/2/5
f 269/2/5 266/2/5 265/2/5
f 270/2/5 266/2/5 269/2/5
f 272/2/5 269/2/5 268/2/5
f 272/2/5 271/2/5 270/2/5
f 272/2/5 270/2/5 269/2/5
f 273/2/5 271/2/5 272/2/5
f 274/2/5 271/2/5 273/2/5
f 275/2/5 271/2/5 274/2/5
f 276/4/5 273/4/5 272/4/5
f 276/2/5 274/2/5 273/2/5
f 277/4/5 275/4/5 274/4/5
f 277/2/5 274/2/5 276/2/5
f 278/4/5 276/4/5 272/4/5
f 278/4/5 277/4/5 276/4/5
f 279/4/5 275/4/5 277/4/5
f 279/4/5 277/4/5 278/4/5
f 282/4/5 281/4/5 280/4/5
f 283/4/5 281/4/5 282/4/5
f 284/4/5 282/4/5 280/4/5
f 284/2/5 283/2/5 282/2/5
f 285/2/5 283/2/5 284/2/5
f 286/2/5 283/2/5 285/2/5
f 287/4/5 281/4/5 283/4/5
f 287/2/5 283/2/5 286/2/5
f 288/4/5 281/4/5 287/4/5
f 289/4/5 284/4/5 280/4/5
f 290/4/5 284/4/5 289/4/5
f 291/2/5 286/2/5 285/2/5
f 292/2/5 286/2/5 291/2/5
f 297/5/5 294/5/5 293/5/5
f 298/5/5 294/5/5 297/5/5
f 299/5/5 296/5/5 295/5/5
f 300/5/5 296/5/5 299/5/5
f 301/2/6 302/2/6 303/2/6
f 303/2/6 302/2/6 304/2/6
f 305/5/6 306/5/6 309/5/6
f 309/5/6 306/5/6 310/5/6
f 307/5/6 308/5/6 311/5/6
f 311/5/6 308/5/6 312/5/6
f 313/4/6 314/4/6 317/4/6
f 315/4/6 316/4/6 318/4/6
f 313/4/6 317/4/6 319/4/6
f 317/4/6 318/4/6 319/4/6
f 318/4/6 316/4/6 320/4/6
f 319/4/6 318/4/6 320/4/6
f 321/3/6 322/3/6 323/3/6
f 323/3/6 322/3/6 324/3/6
f 325/4/6 326/4/6 327/4/6
f 327/4/6 326/4/6 328/4/6
