# MagicaVoxel @ ephtracy

# material
mtllib kaivo.mtl
usemtl palette

# normals
vn -1 0 0
vn 1 0 0
vn 0 0 1
vn 0 0 -1
vn 0 -1 0
vn 0 1 0

# texcoords
vt 0.849609 0.5
vt 0.853516 0.5
vt 0.857422 0.5
vt 0.994141 0.5

# verts
v -13 0 6
v -13 0 -0
v -13 1 6
v -13 1 -0
v -12 0 8
v -12 0 6
v -12 0 -0
v -12 0 -2
v -12 1 8
v -12 1 6
v -12 1 -0
v -12 1 -2
v -11 0 10
v -11 0 8
v -11 0 -2
v -11 0 -4
v -11 1 10
v -11 1 8
v -11 1 -2
v -11 1 -4
v -10 0 11
v -10 0 10
v -10 0 -4
v -10 0 -5
v -10 1 11
v -10 1 10
v -10 1 -4
v -10 1 -5
v -8 0 12
v -8 0 11
v -8 0 -5
v -8 0 -6
v -8 1 12
v -8 1 11
v -8 1 -5
v -8 1 -6
v -6 0 13
v -6 0 12
v -6 0 -6
v -6 0 -7
v -6 1 13
v -6 1 12
v -6 1 -6
v -6 1 -7
v -2 0 -7
v -2 0 -9
v -2 1 -3
v -2 1 -5
v -2 1 -7
v -2 2 -3
v -2 2 -9
v -1 0 -9
v -1 0 -11
v -1 1 -1
v -1 1 -3
v -1 2 -1
v -1 2 -3
v -1 2 -9
v -1 2 -11
v 0 0 -11
v 0 0 -12
v 0 1 -0
v 0 1 -1
v 0 2 -0
v 0 2 -1
v 0 2 -11
v 0 2 -12
v 1 0 -12
v 1 0 -13
v 1 1 1
v 1 1 -0
v 1 2 1
v 1 2 -0
v 1 2 -12
v 1 2 -13
v 2 0 -13
v 2 0 -14
v 2 1 2
v 2 1 1
v 2 2 2
v 2 2 1
v 2 2 -13
v 2 2 -14
v 4 0 -14
v 4 0 -15
v 4 1 3
v 4 1 2
v 4 2 3
v 4 2 2
v 4 2 -14
v 4 2 -15
v 6 2 -2
v 6 2 -4
v 6 2 -8
v 6 2 -10
v 6 3 -4
v 6 3 -8
v 6 4 -2
v 6 4 -10
v 0 0 13
v 0 0 12
v 0 1 13
v 0 1 12
v 2 0 12
v 2 0 11
v 2 1 12
v 2 1 11
v 4 0 11
v 4 0 10
v 4 1 11
v 4 1 10
v 5 0 10
v 5 0 8
v 5 1 10
v 5 1 8
v 6 0 8
v 6 0 6
v 6 1 8
v 6 1 6
v 7 0 6
v 7 0 3
v 7 1 6
v 7 1 3
v 8 2 -2
v 8 2 -4
v 8 2 -8
v 8 2 -10
v 8 3 -4
v 8 3 -8
v 8 4 -2
v 8 4 -10
v 10 0 3
v 10 0 2
v 10 0 -14
v 10 0 -15
v 10 2 3
v 10 2 2
v 10 2 -14
v 10 2 -15
v 12 0 2
v 12 0 1
v 12 0 -13
v 12 0 -14
v 12 2 2
v 12 2 1
v 12 2 -13
v 12 2 -14
v 13 0 1
v 13 0 -0
v 13 0 -12
v 13 0 -13
v 13 2 1
v 13 2 -0
v 13 2 -12
v 13 2 -13
v 14 0 -0
v 14 0 -1
v 14 0 -11
v 14 0 -12
v 14 2 -0
v 14 2 -1
v 14 2 -11
v 14 2 -12
v 15 0 -1
v 15 0 -3
v 15 0 -9
v 15 0 -11
v 15 2 -1
v 15 2 -3
v 15 2 -9
v 15 2 -11
v 16 0 -3
v 16 0 -9
v 16 2 -3
v 16 2 -9
v -6 0 13
v -6 1 13
v 0 0 13
v 0 1 13
v -8 0 12
v -8 1 12
v -6 0 12
v -6 1 12
v 0 0 12
v 0 1 12
v 2 0 12
v 2 1 12
v -10 0 11
v -10 1 11
v -8 0 11
v -8 1 11
v 2 0 11
v 2 1 11
v 4 0 11
v 4 1 11
v -11 0 10
v -11 1 10
v -10 0 10
v -10 1 10
v 4 0 10
v 4 1 10
v 5 0 10
v 5 1 10
v -12 0 8
v -12 1 8
v -11 0 8
v -11 1 8
v 5 0 8
v 5 1 8
v 6 0 8
v 6 1 8
v -13 0 6
v -13 1 6
v -12 0 6
v -12 1 6
v 6 0 6
v 6 1 6
v 7 0 6
v 7 1 6
v 4 1 3
v 4 2 3
v 5 1 3
v 7 0 3
v 7 1 3
v 10 0 3
v 10 2 3
v 2 1 2
v 2 2 2
v 4 1 2
v 4 2 2
v 10 0 2
v 10 2 2
v 12 0 2
v 12 2 2
v 1 1 1
v 1 2 1
v 2 1 1
v 2 2 1
v 12 0 1
v 12 2 1
v 13 0 1
v 13 2 1
v 0 1 -0
v 0 2 -0
v 1 1 -0
v 1 2 -0
v 13 0 -0
v 13 2 -0
v 14 0 -0
v 14 2 -0
v -1 1 -1
v -1 2 -1
v 0 1 -1
v 0 2 -1
v 14 0 -1
v 14 2 -1
v 15 0 -1
v 15 2 -1
v 6 2 -2
v 6 4 -2
v 8 2 -2
v 8 4 -2
v -2 1 -3
v -2 2 -3
v -1 1 -3
v -1 2 -3
v 15 0 -3
v 15 2 -3
v 16 0 -3
v 16 2 -3
v -13 0 -0
v -13 1 -0
v -12 0 -0
v -12 1 -0
v -12 0 -2
v -12 1 -2
v -11 0 -2
v -11 1 -2
v -11 0 -4
v -11 1 -4
v -10 0 -4
v -10 1 -4
v -10 0 -5
v -10 1 -5
v -8 0 -5
v -8 1 -5
v -8 0 -6
v -8 1 -6
v -6 0 -6
v -6 1 -6
v -6 0 -7
v -6 1 -7
v -2 0 -7
v -2 1 -7
v -2 0 -9
v -2 2 -9
v -1 0 -9
v -1 2 -9
v 15 0 -9
v 15 2 -9
v 16 0 -9
v 16 2 -9
v 6 2 -10
v 6 4 -10
v 8 2 -10
v 8 4 -10
v -1 0 -11
v -1 2 -11
v 0 0 -11
v 0 2 -11
v 14 0 -11
v 14 2 -11
v 15 0 -11
v 15 2 -11
v 0 0 -12
v 0 2 -12
v 1 0 -12
v 1 2 -12
v 13 0 -12
v 13 2 -12
v 14 0 -12
v 14 2 -12
v 1 0 -13
v 1 2 -13
v 2 0 -13
v 2 2 -13
v 12 0 -13
v 12 2 -13
v 13 0 -13
v 13 2 -13
v 2 0 -14
v 2 2 -14
v 4 0 -14
v 4 2 -14
v 10 0 -14
v 10 2 -14
v 12 0 -14
v 12 2 -14
v 4 0 -15
v 4 2 -15
v 10 0 -15
v 10 2 -15
v -6 0 13
v 0 0 13
v -8 0 12
v -6 0 12
v 0 0 12
v 2 0 12
v -10 0 11
v -8 0 11
v -5 0 11
v -1 0 11
v 2 0 11
v 4 0 11
v -11 0 10
v -10 0 10
v -7 0 10
v -5 0 10
v -1 0 10
v 0 0 10
v 4 0 10
v 5 0 10
v -8 0 9
v -7 0 9
v 0 0 9
v 2 0 9
v -12 0 8
v -11 0 8
v -9 0 8
v -8 0 8
v 2 0 8
v 3 0 8
v 5 0 8
v 6 0 8
v -10 0 7
v -9 0 7
v 3 0 7
v 4 0 7
v -13 0 6
v -12 0 6
v 6 0 6
v 7 0 6
v -11 0 5
v -10 0 5
v 4 0 5
v 5 0 5
v 4 0 3
v 5 0 3
v 7 0 3
v 10 0 3
v 2 0 2
v 4 0 2
v 7 0 2
v 10 0 2
v 12 0 2
v -11 0 1
v -10 0 1
v 1 0 1
v 2 0 1
v 10 0 1
v 12 0 1
v 13 0 1
v -13 0 -0
v -12 0 -0
v -10 0 -0
v -9 0 -0
v 0 0 -0
v 1 0 -0
v 12 0 -0
v 13 0 -0
v 14 0 -0
v -1 0 -1
v 0 0 -1
v 13 0 -1
v 14 0 -1
v 15 0 -1
v -12 0 -2
v -11 0 -2
v -9 0 -2
v -8 0 -2
v -8 0 -3
v -7 0 -3
v -2 0 -3
v -1 0 -3
v 14 0 -3
v 15 0 -3
v 16 0 -3
v -11 0 -4
v -10 0 -4
v -7 0 -4
v -5 0 -4
v -10 0 -5
v -8 0 -5
v -5 0 -5
v -2 0 -5
v -8 0 -6
v -6 0 -6
v -6 0 -7
v -2 0 -7
v -1 0 -7
v -2 0 -9
v -1 0 -9
v 0 0 -9
v 14 0 -9
v 15 0 -9
v 16 0 -9
v -1 0 -11
v 0 0 -11
v 1 0 -11
v 13 0 -11
v 14 0 -11
v 15 0 -11
v 0 0 -12
v 1 0 -12
v 2 0 -12
v 12 0 -12
v 13 0 -12
v 14 0 -12
v 1 0 -13
v 2 0 -13
v 4 0 -13
v 10 0 -13
v 12 0 -13
v 13 0 -13
v 2 0 -14
v 4 0 -14
v 10 0 -14
v 12 0 -14
v 4 0 -15
v 10 0 -15
v -6 1 13
v 0 1 13
v -8 1 12
v -6 1 12
v 0 1 12
v 2 1 12
v -10 1 11
v -8 1 11
v -5 1 11
v -1 1 11
v 2 1 11
v 4 1 11
v -11 1 10
v -10 1 10
v -7 1 10
v -5 1 10
v -1 1 10
v 0 1 10
v 4 1 10
v 5 1 10
v -8 1 9
v -7 1 9
v 0 1 9
v 2 1 9
v -12 1 8
v -11 1 8
v -9 1 8
v -8 1 8
v 2 1 8
v 3 1 8
v 5 1 8
v 6 1 8
v -10 1 7
v -9 1 7
v 3 1 7
v 4 1 7
v -13 1 6
v -12 1 6
v 6 1 6
v 7 1 6
v -11 1 5
v -10 1 5
v 4 1 5
v 5 1 5
v 4 1 3
v 5 1 3
v 7 1 3
v 2 1 2
v 4 1 2
v -11 1 1
v -10 1 1
v 1 1 1
v 2 1 1
v -13 1 -0
v -12 1 -0
v -10 1 -0
v -9 1 -0
v 0 1 -0
v 1 1 -0
v -1 1 -1
v 0 1 -1
v -12 1 -2
v -11 1 -2
v -9 1 -2
v -8 1 -2
v -8 1 -3
v -7 1 -3
v -2 1 -3
v -1 1 -3
v -11 1 -4
v -10 1 -4
v -7 1 -4
v -5 1 -4
v -10 1 -5
v -8 1 -5
v -5 1 -5
v -2 1 -5
v -8 1 -6
v -6 1 -6
v -6 1 -7
v -2 1 -7
v 4 2 3
v 10 2 3
v 2 2 2
v 4 2 2
v 10 2 2
v 12 2 2
v 1 2 1
v 2 2 1
v 12 2 1
v 13 2 1
v 0 2 -0
v 1 2 -0
v 13 2 -0
v 14 2 -0
v -1 2 -1
v 0 2 -1
v 14 2 -1
v 15 2 -1
v 6 2 -2
v 8 2 -2
v -2 2 -3
v -1 2 -3
v 15 2 -3
v 16 2 -3
v 6 2 -4
v 8 2 -4
v 6 2 -8
v 8 2 -8
v -2 2 -9
v -1 2 -9
v 15 2 -9
v 16 2 -9
v 6 2 -10
v 8 2 -10
v -1 2 -11
v 0 2 -11
v 14 2 -11
v 15 2 -11
v 0 2 -12
v 1 2 -12
v 13 2 -12
v 14 2 -12
v 1 2 -13
v 2 2 -13
v 12 2 -13
v 13 2 -13
v 2 2 -14
v 4 2 -14
v 10 2 -14
v 12 2 -14
v 4 2 -15
v 10 2 -15
v 6 4 -2
v 8 4 -2
v 6 4 -10
v 8 4 -10

# faces
f 3/1/1 2/1/1 1/1/1
f 4/1/1 2/1/1 3/1/1
f 9/1/1 6/1/1 5/1/1
f 10/1/1 6/1/1 9/1/1
f 11/1/1 8/1/1 7/1/1
f 12/1/1 8/1/1 11/1/1
f 17/1/1 14/1/1 13/1/1
f 18/1/1 14/1/1 17/1/1
f 19/1/1 16/1/1 15/1/1
f 20/1/1 16/1/1 19/1/1
f 25/1/1 22/1/1 21/1/1
f 26/1/1 22/1/1 25/1/1
f 27/1/1 24/1/1 23/1/1
f 28/1/1 24/1/1 27/1/1
f 33/1/1 30/1/1 29/1/1
f 34/1/1 30/1/1 33/1/1
f 35/1/1 32/1/1 31/1/1
f 36/1/1 32/1/1 35/1/1
f 41/1/1 38/1/1 37/1/1
f 42/1/1 38/1/1 41/1/1
f 43/1/1 40/1/1 39/1/1
f 44/1/1 40/1/1 43/1/1
f 49/2/1 46/2/1 45/2/1
f 50/2/1 48/2/1 47/2/1
f 50/2/1 49/2/1 48/2/1
f 51/2/1 46/2/1 49/2/1
f 51/2/1 49/2/1 50/2/1
f 56/2/1 55/2/1 54/2/1
f 57/2/1 55/2/1 56/2/1
f 58/2/1 53/2/1 52/2/1
f 59/2/1 53/2/1 58/2/1
f 64/2/1 63/2/1 62/2/1
f 65/2/1 63/2/1 64/2/1
f 66/2/1 61/2/1 60/2/1
f 67/2/1 61/2/1 66/2/1
f 72/2/1 71/2/1 70/2/1
f 73/2/1 71/2/1 72/2/1
f 74/2/1 69/2/1 68/2/1
f 75/2/1 69/2/1 74/2/1
f 80/2/1 79/2/1 78/2/1
f 81/2/1 79/2/1 80/2/1
f 82/2/1 77/2/1 76/2/1
f 83/2/1 77/2/1 82/2/1
f 88/2/1 87/2/1 86/2/1
f 89/2/1 87/2/1 88/2/1
f 90/2/1 85/2/1 84/2/1
f 91/2/1 85/2/1 90/2/1
f 96/3/1 93/3/1 92/3/1
f 96/4/1 94/4/1 93/4/1
f 97/3/1 95/3/1 94/3/1
f 97/4/1 94/4/1 96/4/1
f 98/3/1 96/3/1 92/3/1
f 98/3/1 97/3/1 96/3/1
f 99/3/1 95/3/1 97/3/1
f 99/3/1 97/3/1 98/3/1
f 100/1/2 101/1/2 102/1/2
f 102/1/2 101/1/2 103/1/2
f 104/1/2 105/1/2 106/1/2
f 106/1/2 105/1/2 107/1/2
f 108/1/2 109/1/2 110/1/2
f 110/1/2 109/1/2 111/1/2
f 112/1/2 113/1/2 114/1/2
f 114/1/2 113/1/2 115/1/2
f 116/1/2 117/1/2 118/1/2
f 118/1/2 117/1/2 119/1/2
f 120/1/2 121/1/2 122/1/2
f 122/1/2 121/1/2 123/1/2
f 124/3/2 125/3/2 128/3/2
f 125/4/2 126/4/2 128/4/2
f 126/3/2 127/3/2 129/3/2
f 128/4/2 126/4/2 129/4/2
f 124/3/2 128/3/2 130/3/2
f 128/3/2 129/3/2 130/3/2
f 129/3/2 127/3/2 131/3/2
f 130/3/2 129/3/2 131/3/2
f 132/2/2 133/2/2 136/2/2
f 136/2/2 133/2/2 137/2/2
f 134/2/2 135/2/2 138/2/2
f 138/2/2 135/2/2 139/2/2
f 140/2/2 141/2/2 144/2/2
f 144/2/2 141/2/2 145/2/2
f 142/2/2 143/2/2 146/2/2
f 146/2/2 143/2/2 147/2/2
f 148/2/2 149/2/2 152/2/2
f 152/2/2 149/2/2 153/2/2
f 150/2/2 151/2/2 154/2/2
f 154/2/2 151/2/2 155/2/2
f 156/2/2 157/2/2 160/2/2
f 160/2/2 157/2/2 161/2/2
f 158/2/2 159/2/2 162/2/2
f 162/2/2 159/2/2 163/2/2
f 164/2/2 165/2/2 168/2/2
f 168/2/2 165/2/2 169/2/2
f 166/2/2 167/2/2 170/2/2
f 170/2/2 167/2/2 171/2/2
f 172/2/2 173/2/2 174/2/2
f 174/2/2 173/2/2 175/2/2
f 178/1/3 177/1/3 176/1/3
f 179/1/3 177/1/3 178/1/3
f 182/1/3 181/1/3 180/1/3
f 183/1/3 181/1/3 182/1/3
f 186/1/3 185/1/3 184/1/3
f 187/1/3 185/1/3 186/1/3
f 190/1/3 189/1/3 188/1/3
f 191/1/3 189/1/3 190/1/3
f 194/1/3 193/1/3 192/1/3
f 195/1/3 193/1/3 194/1/3
f 198/1/3 197/1/3 196/1/3
f 199/1/3 197/1/3 198/1/3
f 202/1/3 201/1/3 200/1/3
f 203/1/3 201/1/3 202/1/3
f 206/1/3 205/1/3 204/1/3
f 207/1/3 205/1/3 206/1/3
f 210/1/3 209/1/3 208/1/3
f 211/1/3 209/1/3 210/1/3
f 214/1/3 213/1/3 212/1/3
f 215/1/3 213/1/3 214/1/3
f 218/1/3 217/1/3 216/1/3
f 219/1/3 217/1/3 218/1/3
f 222/2/3 221/2/3 220/2/3
f 224/2/3 221/2/3 222/2/3
f 225/2/3 224/2/3 223/2/3
f 226/2/3 221/2/3 224/2/3
f 226/2/3 224/2/3 225/2/3
f 229/2/3 228/2/3 227/2/3
f 230/2/3 228/2/3 229/2/3
f 233/2/3 232/2/3 231/2/3
f 234/2/3 232/2/3 233/2/3
f 237/2/3 236/2/3 235/2/3
f 238/2/3 236/2/3 237/2/3
f 241/2/3 240/2/3 239/2/3
f 242/2/3 240/2/3 241/2/3
f 245/2/3 244/2/3 243/2/3
f 246/2/3 244/2/3 245/2/3
f 249/2/3 248/2/3 247/2/3
f 250/2/3 248/2/3 249/2/3
f 253/2/3 252/2/3 251/2/3
f 254/2/3 252/2/3 253/2/3
f 257/2/3 256/2/3 255/2/3
f 258/2/3 256/2/3 257/2/3
f 261/3/3 260/3/3 259/3/3
f 262/3/3 260/3/3 261/3/3
f 265/2/3 264/2/3 263/2/3
f 266/2/3 264/2/3 265/2/3
f 269/2/3 268/2/3 267/2/3
f 270/2/3 268/2/3 269/2/3
f 271/1/4 272/1/4 273/1/4
f 273/1/4 272/1/4 274/1/4
f 275/1/4 276/1/4 277/1/4
f 277/1/4 276/1/4 278/1/4
f 279/1/4 280/1/4 281/1/4
f 281/1/4 280/1/4 282/1/4
f 283/1/4 284/1/4 285/1/4
f 285/1/4 284/1/4 286/1/4
f 287/1/4 288/1/4 289/1/4
f 289/1/4 288/1/4 290/1/4
f 291/1/4 292/1/4 293/1/4
f 293/1/4 292/1/4 294/1/4
f 295/2/4 296/2/4 297/2/4
f 297/2/4 296/2/4 298/2/4
f 299/2/4 300/2/4 301/2/4
f 301/2/4 300/2/4 302/2/4
f 303/3/4 304/3/4 305/3/4
f 305/3/4 304/3/4 306/3/4
f 307/2/4 308/2/4 309/2/4
f 309/2/4 308/2/4 310/2/4
f 311/2/4 312/2/4 313/2/4
f 313/2/4 312/2/4 314/2/4
f 315/2/4 316/2/4 317/2/4
f 317/2/4 316/2/4 318/2/4
f 319/2/4 320/2/4 321/2/4
f 321/2/4 320/2/4 322/2/4
f 323/2/4 324/2/4 325/2/4
f 325/2/4 324/2/4 326/2/4
f 327/2/4 328/2/4 329/2/4
f 329/2/4 328/2/4 330/2/4
f 331/2/4 332/2/4 333/2/4
f 333/2/4 332/2/4 334/2/4
f 335/2/4 336/2/4 337/2/4
f 337/2/4 336/2/4 338/2/4
f 339/2/4 340/2/4 341/2/4
f 341/2/4 340/2/4 342/2/4
f 346/1/5 344/1/5 343/1/5
f 347/1/5 344/1/5 346/1/5
f 350/1/5 346/1/5 345/1/5
f 350/1/5 348/1/5 347/1/5
f 350/1/5 347/1/5 346/1/5
f 351/1/5 348/1/5 350/1/5
f 352/1/5 348/1/5 351/1/5
f 353/1/5 348/1/5 352/1/5
f 356/1/5 350/1/5 349/1/5
f 356/1/5 351/1/5 350/1/5
f 357/1/5 351/1/5 356/1/5
f 358/4/5 352/4/5 351/4/5
f 358/1/5 351/1/5 357/1/5
f 359/1/5 354/1/5 353/1/5
f 359/4/5 352/4/5 358/4/5
f 359/1/5 353/1/5 352/1/5
f 360/1/5 354/1/5 359/1/5
f 361/1/5 354/1/5 360/1/5
f 363/1/5 356/1/5 355/1/5
f 363/1/5 357/1/5 356/1/5
f 364/4/5 358/4/5 357/4/5
f 364/1/5 357/1/5 363/1/5
f 364/4/5 359/4/5 358/4/5
f 364/4/5 360/4/5 359/4/5
f 365/1/5 362/1/5 361/1/5
f 365/4/5 360/4/5 364/4/5
f 365/1/5 361/1/5 360/1/5
f 366/1/5 362/1/5 365/1/5
f 368/1/5 363/1/5 355/1/5
f 369/1/5 363/1/5 368/1/5
f 370/4/5 364/4/5 363/4/5
f 370/1/5 363/1/5 369/1/5
f 370/4/5 365/4/5 364/4/5
f 370/4/5 366/4/5 365/4/5
f 371/1/5 362/1/5 366/1/5
f 371/4/5 366/4/5 370/4/5
f 372/1/5 362/1/5 371/1/5
f 373/1/5 362/1/5 372/1/5
f 375/1/5 369/1/5 368/1/5
f 375/1/5 368/1/5 367/1/5
f 376/4/5 370/4/5 369/4/5
f 376/1/5 369/1/5 375/1/5
f 376/4/5 371/4/5 370/4/5
f 376/4/5 372/4/5 371/4/5
f 377/1/5 374/1/5 373/1/5
f 377/4/5 372/4/5 376/4/5
f 377/1/5 373/1/5 372/1/5
f 378/1/5 374/1/5 377/1/5
f 380/1/5 375/1/5 367/1/5
f 381/1/5 374/1/5 378/1/5
f 383/1/5 380/1/5 379/1/5
f 383/1/5 375/1/5 380/1/5
f 384/4/5 376/4/5 375/4/5
f 384/1/5 375/1/5 383/1/5
f 384/4/5 377/4/5 376/4/5
f 384/4/5 378/4/5 377/4/5
f 385/1/5 382/1/5 381/1/5
f 385/4/5 378/4/5 384/4/5
f 385/1/5 381/1/5 378/1/5
f 386/1/5 382/1/5 385/1/5
f 387/4/5 384/4/5 383/4/5
f 387/4/5 385/4/5 384/4/5
f 387/4/5 386/4/5 385/4/5
f 388/1/5 382/1/5 386/1/5
f 388/4/5 386/4/5 387/4/5
f 389/1/5 382/1/5 388/1/5
f 391/4/5 387/4/5 383/4/5
f 392/1/5 388/1/5 387/1/5
f 392/4/5 387/4/5 391/4/5
f 392/1/5 389/1/5 388/1/5
f 393/2/5 390/2/5 389/2/5
f 393/1/5 389/1/5 392/1/5
f 394/2/5 390/2/5 393/2/5
f 396/1/5 383/1/5 379/1/5
f 396/4/5 391/4/5 383/4/5
f 397/4/5 391/4/5 396/4/5
f 398/4/5 391/4/5 397/4/5
f 399/1/5 392/1/5 391/1/5
f 399/4/5 391/4/5 398/4/5
f 399/1/5 394/1/5 393/1/5
f 399/1/5 393/1/5 392/1/5
f 400/2/5 395/2/5 394/2/5
f 400/1/5 394/1/5 399/1/5
f 401/2/5 395/2/5 400/2/5
f 403/1/5 397/1/5 396/1/5
f 403/1/5 396/1/5 379/1/5
f 404/1/5 397/1/5 403/1/5
f 405/4/5 398/4/5 397/4/5
f 405/1/5 397/1/5 404/1/5
f 406/4/5 398/4/5 405/4/5
f 407/4/5 398/4/5 406/4/5
f 408/1/5 399/1/5 398/1/5
f 408/4/5 398/4/5 407/4/5
f 408/1/5 401/1/5 400/1/5
f 408/1/5 400/1/5 399/1/5
f 409/2/5 402/2/5 401/2/5
f 409/1/5 401/1/5 408/1/5
f 410/2/5 402/2/5 409/2/5
f 412/4/5 407/4/5 406/4/5
f 413/1/5 410/1/5 409/1/5
f 413/4/5 407/4/5 412/4/5
f 413/1/5 408/1/5 407/1/5
f 413/1/5 409/1/5 408/1/5
f 414/2/5 411/2/5 410/2/5
f 414/1/5 410/1/5 413/1/5
f 415/2/5 411/2/5 414/2/5
f 417/1/5 406/1/5 405/1/5
f 417/1/5 405/1/5 404/1/5
f 418/1/5 406/1/5 417/1/5
f 419/4/5 412/4/5 406/4/5
f 419/1/5 406/1/5 418/1/5
f 420/4/5 412/4/5 419/4/5
f 421/4/5 412/4/5 420/4/5
f 421/1/5 420/1/5 419/1/5
f 421/1/5 419/1/5 418/1/5
f 422/4/5 412/4/5 421/4/5
f 423/4/5 412/4/5 422/4/5
f 424/1/5 413/1/5 412/1/5
f 424/4/5 412/4/5 423/4/5
f 424/1/5 415/1/5 414/1/5
f 424/1/5 414/1/5 413/1/5
f 425/2/5 416/2/5 415/2/5
f 425/1/5 415/1/5 424/1/5
f 426/2/5 416/2/5 425/2/5
f 428/1/5 422/1/5 421/1/5
f 428/1/5 421/1/5 418/1/5
f 429/1/5 422/1/5 428/1/5
f 430/4/5 423/4/5 422/4/5
f 430/1/5 422/1/5 429/1/5
f 431/4/5 423/4/5 430/4/5
f 432/1/5 430/1/5 429/1/5
f 432/1/5 431/1/5 430/1/5
f 433/1/5 431/1/5 432/1/5
f 434/4/5 423/4/5 431/4/5
f 434/1/5 431/1/5 433/1/5
f 435/1/5 424/1/5 423/1/5
f 435/4/5 423/4/5 434/4/5
f 435/1/5 426/1/5 425/1/5
f 435/1/5 425/1/5 424/1/5
f 436/1/5 434/1/5 433/1/5
f 436/1/5 435/1/5 434/1/5
f 437/1/5 435/1/5 436/1/5
f 438/1/5 435/1/5 437/1/5
f 439/1/5 426/1/5 435/1/5
f 439/1/5 435/1/5 438/1/5
f 440/1/5 426/1/5 439/1/5
f 441/2/5 440/2/5 439/2/5
f 442/1/5 426/1/5 440/1/5
f 442/2/5 440/2/5 441/2/5
f 443/1/5 426/1/5 442/1/5
f 444/1/5 426/1/5 443/1/5
f 445/2/5 427/2/5 426/2/5
f 445/1/5 426/1/5 444/1/5
f 446/2/5 427/2/5 445/2/5
f 447/2/5 443/2/5 442/2/5
f 448/1/5 444/1/5 443/1/5
f 448/2/5 443/2/5 447/2/5
f 449/1/5 444/1/5 448/1/5
f 450/1/5 444/1/5 449/1/5
f 451/2/5 445/2/5 444/2/5
f 451/1/5 444/1/5 450/1/5
f 452/2/5 445/2/5 451/2/5
f 453/2/5 449/2/5 448/2/5
f 454/1/5 450/1/5 449/1/5
f 454/2/5 449/2/5 453/2/5
f 455/1/5 450/1/5 454/1/5
f 456/1/5 450/1/5 455/1/5
f 457/2/5 451/2/5 450/2/5
f 457/1/5 450/1/5 456/1/5
f 458/2/5 451/2/5 457/2/5
f 459/2/5 455/2/5 454/2/5
f 460/1/5 456/1/5 455/1/5
f 460/2/5 455/2/5 459/2/5
f 461/1/5 456/1/5 460/1/5
f 462/1/5 456/1/5 461/1/5
f 463/2/5 457/2/5 456/2/5
f 463/1/5 456/1/5 462/1/5
f 464/2/5 457/2/5 463/2/5
f 465/2/5 461/2/5 460/2/5
f 466/1/5 462/1/5 461/1/5
f 466/2/5 461/2/5 465/2/5
f 467/2/5 463/2/5 462/2/5
f 467/1/5 462/1/5 466/1/5
f 468/2/5 463/2/5 467/2/5
f 469/2/5 467/2/5 466/2/5
f 470/2/5 467/2/5 469/2/5
f 471/1/6 472/1/6 474/1/6
f 474/1/6 472/1/6 475/1/6
f 473/1/6 474/1/6 478/1/6
f 475/1/6 476/1/6 478/1/6
f 474/1/6 475/1/6 478/1/6
f 478/1/6 476/1/6 479/1/6
f 479/1/6 476/1/6 480/1/6
f 480/1/6 476/1/6 481/1/6
f 477/1/6 478/1/6 484/1/6
f 478/1/6 479/1/6 484/1/6
f 484/1/6 479/1/6 485/1/6
f 479/4/6 480/4/6 486/4/6
f 485/1/6 479/1/6 486/1/6
f 481/1/6 482/1/6 487/1/6
f 486/4/6 480/4/6 487/4/6
f 480/1/6 481/1/6 487/1/6
f 487/1/6 482/1/6 488/1/6
f 488/1/6 482/1/6 489/1/6
f 483/1/6 484/1/6 491/1/6
f 484/1/6 485/1/6 491/1/6
f 485/4/6 486/4/6 492/4/6
f 491/1/6 485/1/6 492/1/6
f 486/4/6 487/4/6 492/4/6
f 487/4/6 488/4/6 492/4/6
f 489/1/6 490/1/6 493/1/6
f 492/4/6 488/4/6 493/4/6
f 488/1/6 489/1/6 493/1/6
f 493/1/6 490/1/6 494/1/6
f 483/1/6 491/1/6 496/1/6
f 496/1/6 491/1/6 497/1/6
f 491/4/6 492/4/6 498/4/6
f 497/1/6 491/1/6 498/1/6
f 492/4/6 493/4/6 498/4/6
f 493/4/6 494/4/6 498/4/6
f 494/1/6 490/1/6 499/1/6
f 498/4/6 494/4/6 499/4/6
f 499/1/6 490/1/6 500/1/6
f 500/1/6 490/1/6 501/1/6
f 496/1/6 497/1/6 503/1/6
f 495/1/6 496/1/6 503/1/6
f 497/4/6 498/4/6 504/4/6
f 503/1/6 497/1/6 504/1/6
f 498/4/6 499/4/6 504/4/6
f 499/4/6 500/4/6 504/4/6
f 501/1/6 502/1/6 505/1/6
f 504/4/6 500/4/6 505/4/6
f 500/1/6 501/1/6 505/1/6
f 505/1/6 502/1/6 506/1/6
f 495/1/6 503/1/6 508/1/6
f 506/1/6 502/1/6 509/1/6
f 507/1/6 508/1/6 511/1/6
f 508/1/6 503/1/6 511/1/6
f 503/4/6 504/4/6 512/4/6
f 511/1/6 503/1/6 512/1/6
f 504/4/6 505/4/6 512/4/6
f 505/4/6 506/4/6 512/4/6
f 509/1/6 510/1/6 513/1/6
f 512/4/6 506/4/6 513/4/6
f 506/1/6 509/1/6 513/1/6
f 513/1/6 510/1/6 514/1/6
f 511/4/6 512/4/6 515/4/6
f 512/4/6 513/4/6 515/4/6
f 513/4/6 514/4/6 515/4/6
f 514/1/6 510/1/6 516/1/6
f 515/4/6 514/4/6 516/4/6
f 516/1/6 510/1/6 517/1/6
f 511/4/6 515/4/6 518/4/6
f 518/4/6 515/4/6 519/4/6
f 507/1/6 511/1/6 520/1/6
f 511/4/6 518/4/6 520/4/6
f 520/4/6 518/4/6 521/4/6
f 521/4/6 518/4/6 522/4/6
f 522/4/6 518/4/6 523/4/6
f 507/1/6 520/1/6 524/1/6
f 520/1/6 521/1/6 524/1/6
f 524/1/6 521/1/6 525/1/6
f 521/4/6 522/4/6 526/4/6
f 525/1/6 521/1/6 526/1/6
f 526/4/6 522/4/6 527/4/6
f 527/4/6 522/4/6 528/4/6
f 528/4/6 522/4/6 529/4/6
f 527/4/6 528/4/6 530/4/6
f 530/4/6 528/4/6 531/4/6
f 525/1/6 526/1/6 532/1/6
f 526/1/6 527/1/6 532/1/6
f 532/1/6 527/1/6 533/1/6
f 527/4/6 530/4/6 534/4/6
f 533/1/6 527/1/6 534/1/6
f 534/4/6 530/4/6 535/4/6
f 535/4/6 530/4/6 536/4/6
f 534/1/6 535/1/6 536/1/6
f 533/1/6 534/1/6 536/1/6
f 536/4/6 530/4/6 537/4/6
f 537/4/6 530/4/6 538/4/6
f 538/4/6 530/4/6 539/4/6
f 533/1/6 536/1/6 540/1/6
f 536/1/6 537/1/6 540/1/6
f 540/1/6 537/1/6 541/1/6
f 537/4/6 538/4/6 542/4/6
f 541/1/6 537/1/6 542/1/6
f 542/4/6 538/4/6 543/4/6
f 541/1/6 542/1/6 544/1/6
f 542/1/6 543/1/6 544/1/6
f 544/1/6 543/1/6 545/1/6
f 543/4/6 538/4/6 546/4/6
f 545/1/6 543/1/6 546/1/6
f 546/4/6 538/4/6 547/4/6
f 545/1/6 546/1/6 548/1/6
f 546/1/6 547/1/6 548/1/6
f 548/1/6 547/1/6 549/1/6
f 549/1/6 547/1/6 550/1/6
f 550/1/6 547/1/6 551/1/6
f 552/2/6 553/2/6 555/2/6
f 555/2/6 553/2/6 556/2/6
f 554/2/6 555/2/6 559/2/6
f 556/2/6 557/2/6 559/2/6
f 555/2/6 556/2/6 559/2/6
f 559/2/6 557/2/6 560/2/6
f 558/2/6 559/2/6 563/2/6
f 560/2/6 561/2/6 563/2/6
f 559/2/6 560/2/6 563/2/6
f 563/2/6 561/2/6 564/2/6
f 562/2/6 563/2/6 567/2/6
f 564/2/6 565/2/6 567/2/6
f 563/2/6 564/2/6 567/2/6
f 567/2/6 565/2/6 568/2/6
f 566/2/6 567/2/6 570/2/6
f 568/2/6 569/2/6 570/2/6
f 567/2/6 568/2/6 570/2/6
f 570/2/6 569/2/6 571/2/6
f 566/2/6 570/2/6 573/2/6
f 571/2/6 569/2/6 574/2/6
f 572/2/6 573/2/6 576/2/6
f 573/2/6 570/2/6 576/2/6
f 574/2/6 575/2/6 577/2/6
f 571/2/6 574/2/6 577/2/6
f 572/2/6 576/2/6 578/2/6
f 577/2/6 575/2/6 579/2/6
f 572/2/6 578/2/6 580/2/6
f 580/2/6 578/2/6 581/2/6
f 579/2/6 575/2/6 582/2/6
f 582/2/6 575/2/6 583/2/6
f 581/2/6 578/2/6 584/2/6
f 579/2/6 582/2/6 585/2/6
f 581/2/6 584/2/6 586/2/6
f 584/2/6 585/2/6 586/2/6
f 586/2/6 585/2/6 587/2/6
f 585/2/6 582/2/6 588/2/6
f 587/2/6 585/2/6 588/2/6
f 588/2/6 582/2/6 589/2/6
f 587/2/6 588/2/6 590/2/6
f 590/2/6 588/2/6 591/2/6
f 591/2/6 588/2/6 592/2/6
f 592/2/6 588/2/6 593/2/6
f 591/2/6 592/2/6 594/2/6
f 594/2/6 592/2/6 595/2/6
f 595/2/6 592/2/6 596/2/6
f 596/2/6 592/2/6 597/2/6
f 595/2/6 596/2/6 598/2/6
f 598/2/6 596/2/6 599/2/6
f 599/2/6 596/2/6 600/2/6
f 600/2/6 596/2/6 601/2/6
f 599/2/6 600/2/6 602/2/6
f 602/2/6 600/2/6 603/2/6
f 604/3/6 605/3/6 606/3/6
f 606/3/6 605/3/6 607/3/6
