# MagicaVoxel @ ephtracy

# material
mtllib kaivo.mtl
usemtl palette

# normals
vn -1 0 0
vn 1 0 0
vn 0 0 1
vn 0 0 -1
vn 0 -1 0
vn 0 1 0

# texcoords
vt 0.849609 0.5
vt 0.853516 0.5
vt 0.994141 0.5

# verts
v -13 0 6
v -13 0 -0
v -13 1 6
v -13 1 -0
v -12 0 8
v -12 0 6
v -12 0 -0
v -12 0 -2
v -12 1 8
v -12 1 6
v -12 1 -0
v -12 1 -2
v -11 0 10
v -11 0 8
v -11 0 -2
v -11 0 -4
v -11 1 10
v -11 1 8
v -11 1 -2
v -11 1 -4
v -10 0 11
v -10 0 10
v -10 0 -4
v -10 0 -5
v -10 1 11
v -10 1 10
v -10 1 -4
v -10 1 -5
v -8 0 12
v -8 0 11
v -8 0 -5
v -8 0 -6
v -8 1 12
v -8 1 11
v -8 1 -5
v -8 1 -6
v -6 0 13
v -6 0 12
v -6 0 -6
v -6 0 -7
v -6 1 13
v -6 1 12
v -6 1 -6
v -6 1 -7
v -2 0 -7
v -2 0 -9
v -2 1 -3
v -2 1 -5
v -2 1 -7
v -2 2 -3
v -2 2 -9
v -1 0 -9
v -1 0 -11
v -1 1 -1
v -1 1 -3
v -1 2 -1
v -1 2 -3
v -1 2 -9
v -1 2 -11
v 0 0 -11
v 0 0 -12
v 0 1 -0
v 0 1 -1
v 0 2 -0
v 0 2 -1
v 0 2 -11
v 0 2 -12
v 1 0 -12
v 1 0 -13
v 1 1 1
v 1 1 -0
v 1 2 1
v 1 2 -0
v 1 2 -12
v 1 2 -13
v 2 0 -13
v 2 0 -14
v 2 1 2
v 2 1 1
v 2 2 2
v 2 2 1
v 2 2 -13
v 2 2 -14
v 4 0 -14
v 4 0 -15
v 4 1 3
v 4 1 2
v 4 2 3
v 4 2 2
v 4 2 -14
v 4 2 -15
v 0 0 13
v 0 0 12
v 0 1 13
v 0 1 12
v 2 0 12
v 2 0 11
v 2 1 12
v 2 1 11
v 4 0 11
v 4 0 10
v 4 1 11
v 4 1 10
v 5 0 10
v 5 0 8
v 5 1 10
v 5 1 8
v 6 0 8
v 6 0 6
v 6 1 8
v 6 1 6
v 7 0 6
v 7 0 3
v 7 1 6
v 7 1 3
v 10 0 3
v 10 0 2
v 10 0 -14
v 10 0 -15
v 10 2 3
v 10 2 2
v 10 2 -14
v 10 2 -15
v 12 0 2
v 12 0 1
v 12 0 -13
v 12 0 -14
v 12 2 2
v 12 2 1
v 12 2 -13
v 12 2 -14
v 13 0 1
v 13 0 -0
v 13 0 -12
v 13 0 -13
v 13 2 1
v 13 2 -0
v 13 2 -12
v 13 2 -13
v 14 0 -0
v 14 0 -1
v 14 0 -11
v 14 0 -12
v 14 2 -0
v 14 2 -1
v 14 2 -11
v 14 2 -12
v 15 0 -1
v 15 0 -3
v 15 0 -9
v 15 0 -11
v 15 2 -1
v 15 2 -3
v 15 2 -9
v 15 2 -11
v 16 0 -3
v 16 0 -9
v 16 2 -3
v 16 2 -9
v -6 0 13
v -6 1 13
v 0 0 13
v 0 1 13
v -8 0 12
v -8 1 12
v -6 0 12
v -6 1 12
v 0 0 12
v 0 1 12
v 2 0 12
v 2 1 12
v -10 0 11
v -10 1 11
v -8 0 11
v -8 1 11
v 2 0 11
v 2 1 11
v 4 0 11
v 4 1 11
v -11 0 10
v -11 1 10
v -10 0 10
v -10 1 10
v 4 0 10
v 4 1 10
v 5 0 10
v 5 1 10
v -12 0 8
v -12 1 8
v -11 0 8
v -11 1 8
v 5 0 8
v 5 1 8
v 6 0 8
v 6 1 8
v -13 0 6
v -13 1 6
v -12 0 6
v -12 1 6
v 6 0 6
v 6 1 6
v 7 0 6
v 7 1 6
v 4 1 3
v 4 2 3
v 5 1 3
v 7 0 3
v 7 1 3
v 10 0 3
v 10 2 3
v 2 1 2
v 2 2 2
v 4 1 2
v 4 2 2
v 10 0 2
v 10 2 2
v 12 0 2
v 12 2 2
v 1 1 1
v 1 2 1
v 2 1 1
v 2 2 1
v 12 0 1
v 12 2 1
v 13 0 1
v 13 2 1
v 0 1 -0
v 0 2 -0
v 1 1 -0
v 1 2 -0
v 13 0 -0
v 13 2 -0
v 14 0 -0
v 14 2 -0
v -1 1 -1
v -1 2 -1
v 0 1 -1
v 0 2 -1
v 14 0 -1
v 14 2 -1
v 15 0 -1
v 15 2 -1
v -2 1 -3
v -2 2 -3
v -1 1 -3
v -1 2 -3
v 15 0 -3
v 15 2 -3
v 16 0 -3
v 16 2 -3
v -13 0 -0
v -13 1 -0
v -12 0 -0
v -12 1 -0
v -12 0 -2
v -12 1 -2
v -11 0 -2
v -11 1 -2
v -11 0 -4
v -11 1 -4
v -10 0 -4
v -10 1 -4
v -10 0 -5
v -10 1 -5
v -8 0 -5
v -8 1 -5
v -8 0 -6
v -8 1 -6
v -6 0 -6
v -6 1 -6
v -6 0 -7
v -6 1 -7
v -2 0 -7
v -2 1 -7
v -2 0 -9
v -2 2 -9
v -1 0 -9
v -1 2 -9
v 15 0 -9
v 15 2 -9
v 16 0 -9
v 16 2 -9
v -1 0 -11
v -1 2 -11
v 0 0 -11
v 0 2 -11
v 14 0 -11
v 14 2 -11
v 15 0 -11
v 15 2 -11
v 0 0 -12
v 0 2 -12
v 1 0 -12
v 1 2 -12
v 13 0 -12
v 13 2 -12
v 14 0 -12
v 14 2 -12
v 1 0 -13
v 1 2 -13
v 2 0 -13
v 2 2 -13
v 12 0 -13
v 12 2 -13
v 13 0 -13
v 13 2 -13
v 2 0 -14
v 2 2 -14
v 4 0 -14
v 4 2 -14
v 10 0 -14
v 10 2 -14
v 12 0 -14
v 12 2 -14
v 4 0 -15
v 4 2 -15
v 10 0 -15
v 10 2 -15
v -6 0 13
v 0 0 13
v -8 0 12
v -6 0 12
v 0 0 12
v 2 0 12
v -10 0 11
v -8 0 11
v -5 0 11
v -1 0 11
v 2 0 11
v 4 0 11
v -11 0 10
v -10 0 10
v -7 0 10
v -5 0 10
v -1 0 10
v 0 0 10
v 4 0 10
v 5 0 10
v -8 0 9
v -7 0 9
v 0 0 9
v 2 0 9
v -12 0 8
v -11 0 8
v -9 0 8
v -8 0 8
v 2 0 8
v 3 0 8
v 5 0 8
v 6 0 8
v -10 0 7
v -9 0 7
v 3 0 7
v 4 0 7
v -13 0 6
v -12 0 6
v 6 0 6
v 7 0 6
v -11 0 5
v -10 0 5
v 4 0 5
v 5 0 5
v 4 0 3
v 5 0 3
v 7 0 3
v 10 0 3
v 2 0 2
v 4 0 2
v 7 0 2
v 10 0 2
v 12 0 2
v -11 0 1
v -10 0 1
v 1 0 1
v 2 0 1
v 10 0 1
v 12 0 1
v 13 0 1
v -13 0 -0
v -12 0 -0
v -10 0 -0
v -9 0 -0
v 0 0 -0
v 1 0 -0
v 12 0 -0
v 13 0 -0
v 14 0 -0
v -1 0 -1
v 0 0 -1
v 13 0 -1
v 14 0 -1
v 15 0 -1
v -12 0 -2
v -11 0 -2
v -9 0 -2
v -8 0 -2
v -8 0 -3
v -7 0 -3
v -2 0 -3
v -1 0 -3
v 14 0 -3
v 15 0 -3
v 16 0 -3
v -11 0 -4
v -10 0 -4
v -7 0 -4
v -5 0 -4
v -10 0 -5
v -8 0 -5
v -5 0 -5
v -2 0 -5
v -8 0 -6
v -6 0 -6
v -6 0 -7
v -2 0 -7
v -1 0 -7
v -2 0 -9
v -1 0 -9
v 0 0 -9
v 14 0 -9
v 15 0 -9
v 16 0 -9
v -1 0 -11
v 0 0 -11
v 1 0 -11
v 13 0 -11
v 14 0 -11
v 15 0 -11
v 0 0 -12
v 1 0 -12
v 2 0 -12
v 12 0 -12
v 13 0 -12
v 14 0 -12
v 1 0 -13
v 2 0 -13
v 4 0 -13
v 10 0 -13
v 12 0 -13
v 13 0 -13
v 2 0 -14
v 4 0 -14
v 10 0 -14
v 12 0 -14
v 4 0 -15
v 10 0 -15
v -6 1 13
v 0 1 13
v -8 1 12
v -6 1 12
v 0 1 12
v 2 1 12
v -10 1 11
v -8 1 11
v -5 1 11
v -1 1 11
v 2 1 11
v 4 1 11
v -11 1 10
v -10 1 10
v -7 1 10
v -5 1 10
v -1 1 10
v 0 1 10
v 4 1 10
v 5 1 10
v -8 1 9
v -7 1 9
v 0 1 9
v 2 1 9
v -12 1 8
v -11 1 8
v -9 1 8
v -8 1 8
v 2 1 8
v 3 1 8
v 5 1 8
v 6 1 8
v -10 1 7
v -9 1 7
v 3 1 7
v 4 1 7
v -13 1 6
v -12 1 6
v 6 1 6
v 7 1 6
v -11 1 5
v -10 1 5
v 4 1 5
v 5 1 5
v 4 1 3
v 5 1 3
v 7 1 3
v 2 1 2
v 4 1 2
v -11 1 1
v -10 1 1
v 1 1 1
v 2 1 1
v -13 1 -0
v -12 1 -0
v -10 1 -0
v -9 1 -0
v 0 1 -0
v 1 1 -0
v -1 1 -1
v 0 1 -1
v -12 1 -2
v -11 1 -2
v -9 1 -2
v -8 1 -2
v -8 1 -3
v -7 1 -3
v -2 1 -3
v -1 1 -3
v -11 1 -4
v -10 1 -4
v -7 1 -4
v -5 1 -4
v -10 1 -5
v -8 1 -5
v -5 1 -5
v -2 1 -5
v -8 1 -6
v -6 1 -6
v -6 1 -7
v -2 1 -7
v 4 2 3
v 10 2 3
v 2 2 2
v 4 2 2
v 10 2 2
v 12 2 2
v 1 2 1
v 2 2 1
v 12 2 1
v 13 2 1
v 0 2 -0
v 1 2 -0
v 13 2 -0
v 14 2 -0
v -1 2 -1
v 0 2 -1
v 14 2 -1
v 15 2 -1
v 6 2 -2
v 7 2 -2
v 8 2 -2
v 9 2 -2
v -2 2 -3
v -1 2 -3
v 15 2 -3
v 16 2 -3
v -2 2 -9
v -1 2 -9
v 15 2 -9
v 16 2 -9
v 6 2 -10
v 7 2 -10
v 8 2 -10
v 9 2 -10
v -1 2 -11
v 0 2 -11
v 14 2 -11
v 15 2 -11
v 0 2 -12
v 1 2 -12
v 13 2 -12
v 14 2 -12
v 1 2 -13
v 2 2 -13
v 12 2 -13
v 13 2 -13
v 2 2 -14
v 4 2 -14
v 10 2 -14
v 12 2 -14
v 4 2 -15
v 10 2 -15

# faces
f 3/1/1 2/1/1 1/1/1
f 4/1/1 2/1/1 3/1/1
f 9/1/1 6/1/1 5/1/1
f 10/1/1 6/1/1 9/1/1
f 11/1/1 8/1/1 7/1/1
f 12/1/1 8/1/1 11/1/1
f 17/1/1 14/1/1 13/1/1
f 18/1/1 14/1/1 17/1/1
f 19/1/1 16/1/1 15/1/1
f 20/1/1 16/1/1 19/1/1
f 25/1/1 22/1/1 21/1/1
f 26/1/1 22/1/1 25/1/1
f 27/1/1 24/1/1 23/1/1
f 28/1/1 24/1/1 27/1/1
f 33/1/1 30/1/1 29/1/1
f 34/1/1 30/1/1 33/1/1
f 35/1/1 32/1/1 31/1/1
f 36/1/1 32/1/1 35/1/1
f 41/1/1 38/1/1 37/1/1
f 42/1/1 38/1/1 41/1/1
f 43/1/1 40/1/1 39/1/1
f 44/1/1 40/1/1 43/1/1
f 49/2/1 46/2/1 45/2/1
f 50/2/1 48/2/1 47/2/1
f 50/2/1 49/2/1 48/2/1
f 51/2/1 46/2/1 49/2/1
f 51/2/1 49/2/1 50/2/1
f 56/2/1 55/2/1 54/2/1
f 57/2/1 55/2/1 56/2/1
f 58/2/1 53/2/1 52/2/1
f 59/2/1 53/2/1 58/2/1
f 64/2/1 63/2/1 62/2/1
f 65/2/1 63/2/1 64/2/1
f 66/2/1 61/2/1 60/2/1
f 67/2/1 61/2/1 66/2/1
f 72/2/1 71/2/1 70/2/1
f 73/2/1 71/2/1 72/2/1
f 74/2/1 69/2/1 68/2/1
f 75/2/1 69/2/1 74/2/1
f 80/2/1 79/2/1 78/2/1
f 81/2/1 79/2/1 80/2/1
f 82/2/1 77/2/1 76/2/1
f 83/2/1 77/2/1 82/2/1
f 88/2/1 87/2/1 86/2/1
f 89/2/1 87/2/1 88/2/1
f 90/2/1 85/2/1 84/2/1
f 91/2/1 85/2/1 90/2/1
f 92/1/2 93/1/2 94/1/2
f 94/1/2 93/1/2 95/1/2
f 96/1/2 97/1/2 98/1/2
f 98/1/2 97/1/2 99/1/2
f 100/1/2 101/1/2 102/1/2
f 102/1/2 101/1/2 103/1/2
f 104/1/2 105/1/2 106/1/2
f 106/1/2 105/1/2 107/1/2
f 108/1/2 109/1/2 110/1/2
f 110/1/2 109/1/2 111/1/2
f 112/1/2 113/1/2 114/1/2
f 114/1/2 113/1/2 115/1/2
f 116/2/2 117/2/2 120/2/2
f 120/2/2 117/2/2 121/2/2
f 118/2/2 119/2/2 122/2/2
f 122/2/2 119/2/2 123/2/2
f 124/2/2 125/2/2 128/2/2
f 128/2/2 125/2/2 129/2/2
f 126/2/2 127/2/2 130/2/2
f 130/2/2 127/2/2 131/2/2
f 132/2/2 133/2/2 136/2/2
f 136/2/2 133/2/2 137/2/2
f 134/2/2 135/2/2 138/2/2
f 138/2/2 135/2/2 139/2/2
f 140/2/2 141/2/2 144/2/2
f 144/2/2 141/2/2 145/2/2
f 142/2/2 143/2/2 146/2/2
f 146/2/2 143/2/2 147/2/2
f 148/2/2 149/2/2 152/2/2
f 152/2/2 149/2/2 153/2/2
f 150/2/2 151/2/2 154/2/2
f 154/2/2 151/2/2 155/2/2
f 156/2/2 157/2/2 158/2/2
f 158/2/2 157/2/2 159/2/2
f 162/1/3 161/1/3 160/1/3
f 163/1/3 161/1/3 162/1/3
f 166/1/3 165/1/3 164/1/3
f 167/1/3 165/1/3 166/1/3
f 170/1/3 169/1/3 168/1/3
f 171/1/3 169/1/3 170/1/3
f 174/1/3 173/1/3 172/1/3
f 175/1/3 173/1/3 174/1/3
f 178/1/3 177/1/3 176/1/3
f 179/1/3 177/1/3 178/1/3
f 182/1/3 181/1/3 180/1/3
f 183/1/3 181/1/3 182/1/3
f 186/1/3 185/1/3 184/1/3
f 187/1/3 185/1/3 186/1/3
f 190/1/3 189/1/3 188/1/3
f 191/1/3 189/1/3 190/1/3
f 194/1/3 193/1/3 192/1/3
f 195/1/3 193/1/3 194/1/3
f 198/1/3 197/1/3 196/1/3
f 199/1/3 197/1/3 198/1/3
f 202/1/3 201/1/3 200/1/3
f 203/1/3 201/1/3 202/1/3
f 206/2/3 205/2/3 204/2/3
f 208/2/3 205/2/3 206/2/3
f 209/2/3 208/2/3 207/2/3
f 210/2/3 205/2/3 208/2/3
f 210/2/3 208/2/3 209/2/3
f 213/2/3 212/2/3 211/2/3
f 214/2/3 212/2/3 213/2/3
f 217/2/3 216/2/3 215/2/3
f 218/2/3 216/2/3 217/2/3
f 221/2/3 220/2/3 219/2/3
f 222/2/3 220/2/3 221/2/3
f 225/2/3 224/2/3 223/2/3
f 226/2/3 224/2/3 225/2/3
f 229/2/3 228/2/3 227/2/3
f 230/2/3 228/2/3 229/2/3
f 233/2/3 232/2/3 231/2/3
f 234/2/3 232/2/3 233/2/3
f 237/2/3 236/2/3 235/2/3
f 238/2/3 236/2/3 237/2/3
f 241/2/3 240/2/3 239/2/3
f 242/2/3 240/2/3 241/2/3
f 245/2/3 244/2/3 243/2/3
f 246/2/3 244/2/3 245/2/3
f 249/2/3 248/2/3 247/2/3
f 250/2/3 248/2/3 249/2/3
f 251/1/4 252/1/4 253/1/4
f 253/1/4 252/1/4 254/1/4
f 255/1/4 256/1/4 257/1/4
f 257/1/4 256/1/4 258/1/4
f 259/1/4 260/1/4 261/1/4
f 261/1/4 260/1/4 262/1/4
f 263/1/4 264/1/4 265/1/4
f 265/1/4 264/1/4 266/1/4
f 267/1/4 268/1/4 269/1/4
f 269/1/4 268/1/4 270/1/4
f 271/1/4 272/1/4 273/1/4
f 273/1/4 272/1/4 274/1/4
f 275/2/4 276/2/4 277/2/4
f 277/2/4 276/2/4 278/2/4
f 279/2/4 280/2/4 281/2/4
f 281/2/4 280/2/4 282/2/4
f 283/2/4 284/2/4 285/2/4
f 285/2/4 284/2/4 286/2/4
f 287/2/4 288/2/4 289/2/4
f 289/2/4 288/2/4 290/2/4
f 291/2/4 292/2/4 293/2/4
f 293/2/4 292/2/4 294/2/4
f 295/2/4 296/2/4 297/2/4
f 297/2/4 296/2/4 298/2/4
f 299/2/4 300/2/4 301/2/4
f 301/2/4 300/2/4 302/2/4
f 303/2/4 304/2/4 305/2/4
f 305/2/4 304/2/4 306/2/4
f 307/2/4 308/2/4 309/2/4
f 309/2/4 308/2/4 310/2/4
f 311/2/4 312/2/4 313/2/4
f 313/2/4 312/2/4 314/2/4
f 315/2/4 316/2/4 317/2/4
f 317/2/4 316/2/4 318/2/4
f 322/1/5 320/1/5 319/1/5
f 323/1/5 320/1/5 322/1/5
f 326/1/5 322/1/5 321/1/5
f 326/1/5 324/1/5 323/1/5
f 326/1/5 323/1/5 322/1/5
f 327/1/5 324/1/5 326/1/5
f 328/1/5 324/1/5 327/1/5
f 329/1/5 324/1/5 328/1/5
f 332/1/5 326/1/5 325/1/5
f 332/1/5 327/1/5 326/1/5
f 333/1/5 327/1/5 332/1/5
f 334/3/5 328/3/5 327/3/5
f 334/1/5 327/1/5 333/1/5
f 335/1/5 330/1/5 329/1/5
f 335/3/5 328/3/5 334/3/5
f 335/1/5 329/1/5 328/1/5
f 336/1/5 330/1/5 335/1/5
f 337/1/5 330/1/5 336/1/5
f 339/1/5 332/1/5 331/1/5
f 339/1/5 333/1/5 332/1/5
f 340/3/5 334/3/5 333/3/5
f 340/1/5 333/1/5 339/1/5
f 340/3/5 335/3/5 334/3/5
f 340/3/5 336/3/5 335/3/5
f 341/1/5 338/1/5 337/1/5
f 341/3/5 336/3/5 340/3/5
f 341/1/5 337/1/5 336/1/5
f 342/1/5 338/1/5 341/1/5
f 344/1/5 339/1/5 331/1/5
f 345/1/5 339/1/5 344/1/5
f 346/3/5 340/3/5 339/3/5
f 346/1/5 339/1/5 345/1/5
f 346/3/5 341/3/5 340/3/5
f 346/3/5 342/3/5 341/3/5
f 347/1/5 338/1/5 342/1/5
f 347/3/5 342/3/5 346/3/5
f 348/1/5 338/1/5 347/1/5
f 349/1/5 338/1/5 348/1/5
f 351/1/5 345/1/5 344/1/5
f 351/1/5 344/1/5 343/1/5
f 352/3/5 346/3/5 345/3/5
f 352/1/5 345/1/5 351/1/5
f 352/3/5 347/3/5 346/3/5
f 352/3/5 348/3/5 347/3/5
f 353/1/5 350/1/5 349/1/5
f 353/3/5 348/3/5 352/3/5
f 353/1/5 349/1/5 348/1/5
f 354/1/5 350/1/5 353/1/5
f 356/1/5 351/1/5 343/1/5
f 357/1/5 350/1/5 354/1/5
f 359/1/5 356/1/5 355/1/5
f 359/1/5 351/1/5 356/1/5
f 360/3/5 352/3/5 351/3/5
f 360/1/5 351/1/5 359/1/5
f 360/3/5 353/3/5 352/3/5
f 360/3/5 354/3/5 353/3/5
f 361/1/5 358/1/5 357/1/5
f 361/3/5 354/3/5 360/3/5
f 361/1/5 357/1/5 354/1/5
f 362/1/5 358/1/5 361/1/5
f 363/3/5 360/3/5 359/3/5
f 363/3/5 361/3/5 360/3/5
f 363/3/5 362/3/5 361/3/5
f 364/1/5 358/1/5 362/1/5
f 364/3/5 362/3/5 363/3/5
f 365/1/5 358/1/5 364/1/5
f 367/3/5 363/3/5 359/3/5
f 368/1/5 364/1/5 363/1/5
f 368/3/5 363/3/5 367/3/5
f 368/1/5 365/1/5 364/1/5
f 369/2/5 366/2/5 365/2/5
f 369/1/5 365/1/5 368/1/5
f 370/2/5 366/2/5 369/2/5
f 372/1/5 359/1/5 355/1/5
f 372/3/5 367/3/5 359/3/5
f 373/3/5 367/3/5 372/3/5
f 374/3/5 367/3/5 373/3/5
f 375/1/5 368/1/5 367/1/5
f 375/3/5 367/3/5 374/3/5
f 375/1/5 370/1/5 369/1/5
f 375/1/5 369/1/5 368/1/5
f 376/2/5 371/2/5 370/2/5
f 376/1/5 370/1/5 375/1/5
f 377/2/5 371/2/5 376/2/5
f 379/1/5 373/1/5 372/1/5
f 379/1/5 372/1/5 355/1/5
f 380/1/5 373/1/5 379/1/5
f 381/3/5 374/3/5 373/3/5
f 381/1/5 373/1/5 380/1/5
f 382/3/5 374/3/5 381/3/5
f 383/3/5 374/3/5 382/3/5
f 384/1/5 375/1/5 374/1/5
f 384/3/5 374/3/5 383/3/5
f 384/1/5 377/1/5 376/1/5
f 384/1/5 376/1/5 375/1/5
f 385/2/5 378/2/5 377/2/5
f 385/1/5 377/1/5 384/1/5
f 386/2/5 378/2/5 385/2/5
f 388/3/5 383/3/5 382/3/5
f 389/1/5 386/1/5 385/1/5
f 389/3/5 383/3/5 388/3/5
f 389/1/5 384/1/5 383/1/5
f 389/1/5 385/1/5 384/1/5
f 390/2/5 387/2/5 386/2/5
f 390/1/5 386/1/5 389/1/5
f 391/2/5 387/2/5 390/2/5
f 393/1/5 382/1/5 381/1/5
f 393/1/5 381/1/5 380/1/5
f 394/1/5 382/1/5 393/1/5
f 395/3/5 388/3/5 382/3/5
f 395/1/5 382/1/5 394/1/5
f 396/3/5 388/3/5 395/3/5
f 397/3/5 388/3/5 396/3/5
f 397/1/5 396/1/5 395/1/5
f 397/1/5 395/1/5 394/1/5
f 398/3/5 388/3/5 397/3/5
f 399/3/5 388/3/5 398/3/5
f 400/1/5 389/1/5 388/1/5
f 400/3/5 388/3/5 399/3/5
f 400/1/5 391/1/5 390/1/5
f 400/1/5 390/1/5 389/1/5
f 401/2/5 392/2/5 391/2/5
f 401/1/5 391/1/5 400/1/5
f 402/2/5 392/2/5 401/2/5
f 404/1/5 398/1/5 397/1/5
f 404/1/5 397/1/5 394/1/5
f 405/1/5 398/1/5 404/1/5
f 406/3/5 399/3/5 398/3/5
f 406/1/5 398/1/5 405/1/5
f 407/3/5 399/3/5 406/3/5
f 408/1/5 406/1/5 405/1/5
f 408/1/5 407/1/5 406/1/5
f 409/1/5 407/1/5 408/1/5
f 410/3/5 399/3/5 407/3/5
f 410/1/5 407/1/5 409/1/5
f 411/1/5 400/1/5 399/1/5
f 411/3/5 399/3/5 410/3/5
f 411/1/5 402/1/5 401/1/5
f 411/1/5 401/1/5 400/1/5
f 412/1/5 410/1/5 409/1/5
f 412/1/5 411/1/5 410/1/5
f 413/1/5 411/1/5 412/1/5
f 414/1/5 411/1/5 413/1/5
f 415/1/5 402/1/5 411/1/5
f 415/1/5 411/1/5 414/1/5
f 416/1/5 402/1/5 415/1/5
f 417/2/5 416/2/5 415/2/5
f 418/1/5 402/1/5 416/1/5
f 418/2/5 416/2/5 417/2/5
f 419/1/5 402/1/5 418/1/5
f 420/1/5 402/1/5 419/1/5
f 421/2/5 403/2/5 402/2/5
f 421/1/5 402/1/5 420/1/5
f 422/2/5 403/2/5 421/2/5
f 423/2/5 419/2/5 418/2/5
f 424/1/5 420/1/5 419/1/5
f 424/2/5 419/2/5 423/2/5
f 425/1/5 420/1/5 424/1/5
f 426/1/5 420/1/5 425/1/5
f 427/2/5 421/2/5 420/2/5
f 427/1/5 420/1/5 426/1/5
f 428/2/5 421/2/5 427/2/5
f 429/2/5 425/2/5 424/2/5
f 430/1/5 426/1/5 425/1/5
f 430/2/5 425/2/5 429/2/5
f 431/1/5 426/1/5 430/1/5
f 432/1/5 426/1/5 431/1/5
f 433/2/5 427/2/5 426/2/5
f 433/1/5 426/1/5 432/1/5
f 434/2/5 427/2/5 433/2/5
f 435/2/5 431/2/5 430/2/5
f 436/1/5 432/1/5 431/1/5
f 436/2/5 431/2/5 435/2/5
f 437/1/5 432/1/5 436/1/5
f 438/1/5 432/1/5 437/1/5
f 439/2/5 433/2/5 432/2/5
f 439/1/5 432/1/5 438/1/5
f 440/2/5 433/2/5 439/2/5
f 441/2/5 437/2/5 436/2/5
f 442/1/5 438/1/5 437/1/5
f 442/2/5 437/2/5 441/2/5
f 443/2/5 439/2/5 438/2/5
f 443/1/5 438/1/5 442/1/5
f 444/2/5 439/2/5 443/2/5
f 445/2/5 443/2/5 442/2/5
f 446/2/5 443/2/5 445/2/5
f 447/1/6 448/1/6 450/1/6
f 450/1/6 448/1/6 451/1/6
f 449/1/6 450/1/6 454/1/6
f 451/1/6 452/1/6 454/1/6
f 450/1/6 451/1/6 454/1/6
f 454/1/6 452/1/6 455/1/6
f 455/1/6 452/1/6 456/1/6
f 456/1/6 452/1/6 457/1/6
f 453/1/6 454/1/6 460/1/6
f 454/1/6 455/1/6 460/1/6
f 460/1/6 455/1/6 461/1/6
f 455/3/6 456/3/6 462/3/6
f 461/1/6 455/1/6 462/1/6
f 457/1/6 458/1/6 463/1/6
f 462/3/6 456/3/6 463/3/6
f 456/1/6 457/1/6 463/1/6
f 463/1/6 458/1/6 464/1/6
f 464/1/6 458/1/6 465/1/6
f 459/1/6 460/1/6 467/1/6
f 460/1/6 461/1/6 467/1/6
f 461/3/6 462/3/6 468/3/6
f 467/1/6 461/1/6 468/1/6
f 462/3/6 463/3/6 468/3/6
f 463/3/6 464/3/6 468/3/6
f 465/1/6 466/1/6 469/1/6
f 468/3/6 464/3/6 469/3/6
f 464/1/6 465/1/6 469/1/6
f 469/1/6 466/1/6 470/1/6
f 459/1/6 467/1/6 472/1/6
f 472/1/6 467/1/6 473/1/6
f 467/3/6 468/3/6 474/3/6
f 473/1/6 467/1/6 474/1/6
f 468/3/6 469/3/6 474/3/6
f 469/3/6 470/3/6 474/3/6
f 470/1/6 466/1/6 475/1/6
f 474/3/6 470/3/6 475/3/6
f 475/1/6 466/1/6 476/1/6
f 476/1/6 466/1/6 477/1/6
f 472/1/6 473/1/6 479/1/6
f 471/1/6 472/1/6 479/1/6
f 473/3/6 474/3/6 480/3/6
f 479/1/6 473/1/6 480/1/6
f 474/3/6 475/3/6 480/3/6
f 475/3/6 476/3/6 480/3/6
f 477/1/6 478/1/6 481/1/6
f 480/3/6 476/3/6 481/3/6
f 476/1/6 477/1/6 481/1/6
f 481/1/6 478/1/6 482/1/6
f 471/1/6 479/1/6 484/1/6
f 482/1/6 478/1/6 485/1/6
f 483/1/6 484/1/6 487/1/6
f 484/1/6 479/1/6 487/1/6
f 479/3/6 480/3/6 488/3/6
f 487/1/6 479/1/6 488/1/6
f 480/3/6 481/3/6 488/3/6
f 481/3/6 482/3/6 488/3/6
f 485/1/6 486/1/6 489/1/6
f 488/3/6 482/3/6 489/3/6
f 482/1/6 485/1/6 489/1/6
f 489/1/6 486/1/6 490/1/6
f 487/3/6 488/3/6 491/3/6
f 488/3/6 489/3/6 491/3/6
f 489/3/6 490/3/6 491/3/6
f 490/1/6 486/1/6 492/1/6
f 491/3/6 490/3/6 492/3/6
f 492/1/6 486/1/6 493/1/6
f 487/3/6 491/3/6 494/3/6
f 494/3/6 491/3/6 495/3/6
f 483/1/6 487/1/6 496/1/6
f 487/3/6 494/3/6 496/3/6
f 496/3/6 494/3/6 497/3/6
f 497/3/6 494/3/6 498/3/6
f 498/3/6 494/3/6 499/3/6
f 483/1/6 496/1/6 500/1/6
f 496/1/6 497/1/6 500/1/6
f 500/1/6 497/1/6 501/1/6
f 497/3/6 498/3/6 502/3/6
f 501/1/6 497/1/6 502/1/6
f 502/3/6 498/3/6 503/3/6
f 503/3/6 498/3/6 504/3/6
f 504/3/6 498/3/6 505/3/6
f 503/3/6 504/3/6 506/3/6
f 506/3/6 504/3/6 507/3/6
f 501/1/6 502/1/6 508/1/6
f 502/1/6 503/1/6 508/1/6
f 508/1/6 503/1/6 509/1/6
f 503/3/6 506/3/6 510/3/6
f 509/1/6 503/1/6 510/1/6
f 510/3/6 506/3/6 511/3/6
f 511/3/6 506/3/6 512/3/6
f 510/1/6 511/1/6 512/1/6
f 509/1/6 510/1/6 512/1/6
f 512/3/6 506/3/6 513/3/6
f 513/3/6 506/3/6 514/3/6
f 514/3/6 506/3/6 515/3/6
f 509/1/6 512/1/6 516/1/6
f 512/1/6 513/1/6 516/1/6
f 516/1/6 513/1/6 517/1/6
f 513/3/6 514/3/6 518/3/6
f 517/1/6 513/1/6 518/1/6
f 518/3/6 514/3/6 519/3/6
f 517/1/6 518/1/6 520/1/6
f 518/1/6 519/1/6 520/1/6
f 520/1/6 519/1/6 521/1/6
f 519/3/6 514/3/6 522/3/6
f 521/1/6 519/1/6 522/1/6
f 522/3/6 514/3/6 523/3/6
f 521/1/6 522/1/6 524/1/6
f 522/1/6 523/1/6 524/1/6
f 524/1/6 523/1/6 525/1/6
f 525/1/6 523/1/6 526/1/6
f 526/1/6 523/1/6 527/1/6
f 528/2/6 529/2/6 531/2/6
f 531/2/6 529/2/6 532/2/6
f 530/2/6 531/2/6 535/2/6
f 532/2/6 533/2/6 535/2/6
f 531/2/6 532/2/6 535/2/6
f 535/2/6 533/2/6 536/2/6
f 534/2/6 535/2/6 539/2/6
f 536/2/6 537/2/6 539/2/6
f 535/2/6 536/2/6 539/2/6
f 539/2/6 537/2/6 540/2/6
f 538/2/6 539/2/6 543/2/6
f 540/2/6 541/2/6 543/2/6
f 539/2/6 540/2/6 543/2/6
f 543/2/6 541/2/6 544/2/6
f 542/2/6 543/2/6 546/2/6
f 544/2/6 545/2/6 546/2/6
f 543/2/6 544/2/6 546/2/6
f 546/2/6 545/2/6 547/2/6
f 547/2/6 545/2/6 548/2/6
f 548/2/6 545/2/6 549/2/6
f 542/2/6 546/2/6 551/2/6
f 549/2/6 545/2/6 552/2/6
f 550/2/6 551/2/6 554/2/6
f 551/2/6 546/2/6 555/2/6
f 554/2/6 551/2/6 555/2/6
f 552/2/6 553/2/6 556/2/6
f 549/2/6 552/2/6 556/2/6
f 556/2/6 553/2/6 557/2/6
f 555/2/6 546/2/6 558/2/6
f 546/3/6 547/3/6 558/3/6
f 547/2/6 548/2/6 559/2/6
f 558/3/6 547/3/6 559/3/6
f 548/3/6 549/3/6 560/3/6
f 559/2/6 548/2/6 560/2/6
f 549/2/6 556/2/6 561/2/6
f 560/3/6 549/3/6 561/3/6
f 559/2/6 560/2/6 562/2/6
f 555/2/6 558/2/6 562/2/6
f 560/2/6 561/2/6 562/2/6
f 558/2/6 559/2/6 562/2/6
f 562/2/6 561/2/6 563/2/6
f 561/2/6 556/2/6 564/2/6
f 563/2/6 561/2/6 564/2/6
f 564/2/6 556/2/6 565/2/6
f 563/2/6 564/2/6 566/2/6
f 566/2/6 564/2/6 567/2/6
f 567/2/6 564/2/6 568/2/6
f 568/2/6 564/2/6 569/2/6
f 567/2/6 568/2/6 570/2/6
f 570/2/6 568/2/6 571/2/6
f 571/2/6 568/2/6 572/2/6
f 572/2/6 568/2/6 573/2/6
f 571/2/6 572/2/6 574/2/6
f 574/2/6 572/2/6 575/2/6
f 575/2/6 572/2/6 576/2/6
f 576/2/6 572/2/6 577/2/6
f 575/2/6 576/2/6 578/2/6
f 578/2/6 576/2/6 579/2/6
