# MagicaVoxel @ ephtracy

# material
mtllib kivi1.mtl
usemtl palette

# normals
vn -1 0 0
vn 1 0 0
vn 0 0 1
vn 0 0 -1
vn 0 -1 0
vn 0 1 0

# texcoords
vt 0.947266 0.5

# verts
v -6 0 2
v -6 0 -6
v -6 5 2
v -6 5 -6
v -5 0 5
v -5 0 2
v -5 0 -6
v -5 0 -7
v -5 4 -6
v -5 4 -7
v -5 5 2
v -5 5 -6
v -5 6 5
v -5 6 3
v -5 6 -3
v -5 6 -6
v -5 8 3
v -5 8 -3
v -3 0 6
v -3 0 5
v -3 5 6
v -3 5 5
v 3 0 -6
v 3 0 -7
v 3 4 -6
v 3 4 -7
v 4 0 6
v 4 0 -6
v 4 2 3
v 4 2 -6
v 4 5 6
v 4 5 5
v 4 6 5
v 4 6 3
v 4 6 -3
v 4 8 3
v 4 8 -3
v 6 2 3
v 6 2 -6
v 6 6 3
v 6 6 -6
v -3 0 6
v -3 5 6
v 4 0 6
v 4 5 6
v -5 0 5
v -5 6 5
v -3 0 5
v -3 5 5
v 4 5 5
v 4 6 5
v -5 6 3
v -5 8 3
v 4 2 3
v 4 6 3
v 4 8 3
v 6 2 3
v 6 6 3
v -6 0 2
v -6 5 2
v -5 0 2
v -5 5 2
v -5 6 -3
v -5 8 -3
v 4 6 -3
v 4 8 -3
v -6 0 -6
v -6 5 -6
v -5 0 -6
v -5 4 -6
v -5 5 -6
v -5 6 -6
v 3 0 -6
v 3 4 -6
v 4 0 -6
v 4 2 -6
v 6 2 -6
v 6 6 -6
v -5 0 -7
v -5 4 -7
v 3 0 -7
v 3 4 -7
v -3 0 6
v 4 0 6
v -5 0 5
v -3 0 5
v -6 0 2
v -5 0 2
v -6 0 -6
v -5 0 -6
v 3 0 -6
v 4 0 -6
v -5 0 -7
v 3 0 -7
v 4 2 3
v 6 2 3
v 4 2 -6
v 6 2 -6
v -5 4 -6
v 3 4 -6
v -5 4 -7
v 3 4 -7
v -3 5 6
v 4 5 6
v -3 5 5
v 4 5 5
v -6 5 2
v -5 5 2
v -6 5 -6
v -5 5 -6
v -5 6 5
v 4 6 5
v -5 6 3
v 4 6 3
v 6 6 3
v -5 6 -3
v 4 6 -3
v -5 6 -6
v 6 6 -6
v -5 8 3
v 4 8 3
v -5 8 -3
v 4 8 -3

# faces
f 3/1/1 2/1/1 1/1/1
f 4/1/1 2/1/1 3/1/1
f 9/1/1 8/1/1 7/1/1
f 10/1/1 8/1/1 9/1/1
f 11/1/1 6/1/1 5/1/1
f 13/1/1 11/1/1 5/1/1
f 13/1/1 12/1/1 11/1/1
f 14/1/1 12/1/1 13/1/1
f 15/1/1 12/1/1 14/1/1
f 16/1/1 12/1/1 15/1/1
f 17/1/1 15/1/1 14/1/1
f 18/1/1 15/1/1 17/1/1
f 21/1/1 20/1/1 19/1/1
f 22/1/1 20/1/1 21/1/1
f 23/1/2 24/1/2 25/1/2
f 25/1/2 24/1/2 26/1/2
f 27/1/2 28/1/2 29/1/2
f 29/1/2 28/1/2 30/1/2
f 27/1/2 29/1/2 31/1/2
f 31/1/2 29/1/2 32/1/2
f 32/1/2 29/1/2 33/1/2
f 33/1/2 29/1/2 34/1/2
f 34/1/2 35/1/2 36/1/2
f 36/1/2 35/1/2 37/1/2
f 38/1/2 39/1/2 40/1/2
f 40/1/2 39/1/2 41/1/2
f 44/1/3 43/1/3 42/1/3
f 45/1/3 43/1/3 44/1/3
f 48/1/3 47/1/3 46/1/3
f 49/1/3 47/1/3 48/1/3
f 50/1/3 47/1/3 49/1/3
f 51/1/3 47/1/3 50/1/3
f 55/1/3 53/1/3 52/1/3
f 56/1/3 53/1/3 55/1/3
f 57/1/3 55/1/3 54/1/3
f 58/1/3 55/1/3 57/1/3
f 61/1/3 60/1/3 59/1/3
f 62/1/3 60/1/3 61/1/3
f 63/1/4 64/1/4 65/1/4
f 65/1/4 64/1/4 66/1/4
f 67/1/4 68/1/4 69/1/4
f 69/1/4 68/1/4 70/1/4
f 70/1/4 68/1/4 71/1/4
f 71/1/4 72/1/4 74/1/4
f 70/1/4 71/1/4 74/1/4
f 73/1/4 74/1/4 75/1/4
f 75/1/4 74/1/4 76/1/4
f 76/1/4 74/1/4 77/1/4
f 74/1/4 72/1/4 78/1/4
f 77/1/4 74/1/4 78/1/4
f 79/1/4 80/1/4 81/1/4
f 81/1/4 80/1/4 82/1/4
f 86/1/5 84/1/5 83/1/5
f 88/1/5 86/1/5 85/1/5
f 89/1/5 88/1/5 87/1/5
f 90/1/5 86/1/5 88/1/5
f 90/1/5 88/1/5 89/1/5
f 91/1/5 84/1/5 86/1/5
f 91/1/5 86/1/5 90/1/5
f 92/1/5 84/1/5 91/1/5
f 93/1/5 91/1/5 90/1/5
f 94/1/5 91/1/5 93/1/5
f 97/1/5 96/1/5 95/1/5
f 98/1/5 96/1/5 97/1/5
f 99/1/6 100/1/6 101/1/6
f 101/1/6 100/1/6 102/1/6
f 103/1/6 104/1/6 105/1/6
f 105/1/6 104/1/6 106/1/6
f 107/1/6 108/1/6 109/1/6
f 109/1/6 108/1/6 110/1/6
f 111/1/6 112/1/6 113/1/6
f 113/1/6 112/1/6 114/1/6
f 114/1/6 115/1/6 117/1/6
f 116/1/6 117/1/6 118/1/6
f 117/1/6 115/1/6 119/1/6
f 118/1/6 117/1/6 119/1/6
f 120/1/6 121/1/6 122/1/6
f 122/1/6 121/1/6 123/1/6
