# MagicaVoxel @ ephtracy

# material
mtllib lammikko.mtl
usemtl palette

# normals
vn -1 0 0
vn 1 0 0
vn 0 0 1
vn 0 0 -1
vn 0 -1 0
vn 0 1 0

# texcoords
vt 0.830078 0.5
vt 0.861328 0.5

# verts
v -32 0 26
v -32 0 14
v -32 0 -32
v -32 1 26
v -32 1 14
v -32 1 -32
v -28 0 27
v -28 0 26
v -28 1 27
v -28 1 26
v -25 0 28
v -25 0 27
v -25 1 28
v -25 1 27
v -23 0 29
v -23 0 28
v -23 1 29
v -23 1 28
v -18 0 29
v -18 0 28
v -18 1 29
v -18 1 28
v -7 0 28
v -7 0 27
v -7 1 28
v -7 1 27
v -6 0 27
v -6 0 26
v -6 1 27
v -6 1 26
v -5 0 26
v -5 0 25
v -5 1 26
v -5 1 25
v -4 0 25
v -4 0 24
v -4 1 25
v -4 1 24
v -3 0 24
v -3 0 23
v -3 1 24
v -3 1 23
v -1 0 23
v -1 0 22
v -1 1 23
v -1 1 22
v 1 0 22
v 1 0 21
v 1 1 22
v 1 1 21
v 3 0 21
v 3 0 20
v 3 1 21
v 3 1 20
v 6 0 20
v 6 0 19
v 6 1 20
v 6 1 19
v 8 0 19
v 8 0 15
v 8 1 19
v 8 1 15
v 9 0 15
v 9 0 14
v 9 1 15
v 9 1 14
v 10 0 14
v 10 0 9
v 10 1 14
v 10 1 9
v 11 0 9
v 11 0 8
v 11 1 9
v 11 1 8
v 12 0 8
v 12 0 7
v 12 1 8
v 12 1 7
v 13 0 7
v 13 0 6
v 13 1 7
v 13 1 6
v 14 0 6
v 14 0 3
v 14 1 6
v 14 1 3
v 15 0 3
v 15 0 1
v 15 1 3
v 15 1 1
v 16 0 1
v 16 0 -0
v 16 1 1
v 16 1 -0
v 17 0 -0
v 17 0 -1
v 17 1 -0
v 17 1 -1
v 21 0 -1
v 21 0 -3
v 21 1 -1
v 21 1 -3
v 22 0 -3
v 22 0 -5
v 22 1 -3
v 22 1 -5
v 23 0 -5
v 23 0 -9
v 23 1 -5
v 23 1 -9
v 24 0 -9
v 24 0 -10
v 24 1 -9
v 24 1 -10
v 25 0 -10
v 25 0 -12
v 25 1 -10
v 25 1 -12
v 26 0 -12
v 26 0 -15
v 26 1 -12
v 26 1 -15
v 27 0 -15
v 27 0 -17
v 27 0 -27
v 27 0 -32
v 27 1 -15
v 27 1 -17
v 27 1 -27
v 27 1 -32
v 28 0 -17
v 28 0 -27
v 28 1 -17
v 28 1 -27
v -23 0 29
v -23 1 29
v -18 0 29
v -18 1 29
v -25 0 28
v -25 1 28
v -23 0 28
v -23 1 28
v -18 0 28
v -18 1 28
v -7 0 28
v -7 1 28
v -28 0 27
v -28 1 27
v -25 0 27
v -25 1 27
v -7 0 27
v -7 1 27
v -6 0 27
v -6 1 27
v -32 0 26
v -32 1 26
v -28 0 26
v -28 1 26
v -6 0 26
v -6 1 26
v -5 0 26
v -5 1 26
v -5 0 25
v -5 1 25
v -4 0 25
v -4 1 25
v -4 0 24
v -4 1 24
v -3 0 24
v -3 1 24
v -3 0 23
v -3 1 23
v -1 0 23
v -1 1 23
v -1 0 22
v -1 1 22
v 1 0 22
v 1 1 22
v 1 0 21
v 1 1 21
v 3 0 21
v 3 1 21
v 3 0 20
v 3 1 20
v 6 0 20
v 6 1 20
v 6 0 19
v 6 1 19
v 8 0 19
v 8 1 19
v 8 0 15
v 8 1 15
v 9 0 15
v 9 1 15
v 9 0 14
v 9 1 14
v 10 0 14
v 10 1 14
v 10 0 9
v 10 1 9
v 11 0 9
v 11 1 9
v 11 0 8
v 11 1 8
v 12 0 8
v 12 1 8
v 12 0 7
v 12 1 7
v 13 0 7
v 13 1 7
v 13 0 6
v 13 1 6
v 14 0 6
v 14 1 6
v 14 0 3
v 14 1 3
v 15 0 3
v 15 1 3
v 15 0 1
v 15 1 1
v 16 0 1
v 16 1 1
v 16 0 -0
v 16 1 -0
v 17 0 -0
v 17 1 -0
v 17 0 -1
v 17 1 -1
v 21 0 -1
v 21 1 -1
v 21 0 -3
v 21 1 -3
v 22 0 -3
v 22 1 -3
v 22 0 -5
v 22 1 -5
v 23 0 -5
v 23 1 -5
v 23 0 -9
v 23 1 -9
v 24 0 -9
v 24 1 -9
v 24 0 -10
v 24 1 -10
v 25 0 -10
v 25 1 -10
v 25 0 -12
v 25 1 -12
v 26 0 -12
v 26 1 -12
v 26 0 -15
v 26 1 -15
v 27 0 -15
v 27 1 -15
v 27 0 -17
v 27 1 -17
v 28 0 -17
v 28 1 -17
v 27 0 -27
v 27 1 -27
v 28 0 -27
v 28 1 -27
v -32 0 -32
v -32 1 -32
v 24 0 -32
v 24 1 -32
v 27 0 -32
v 27 1 -32
v -23 0 29
v -18 0 29
v -25 0 28
v -23 0 28
v -18 0 28
v -7 0 28
v -28 0 27
v -25 0 27
v -7 0 27
v -6 0 27
v -32 0 26
v -28 0 26
v -6 0 26
v -5 0 26
v -5 0 25
v -4 0 25
v -20 0 24
v -12 0 24
v -4 0 24
v -3 0 24
v -21 0 23
v -20 0 23
v -12 0 23
v -10 0 23
v -3 0 23
v -1 0 23
v -22 0 22
v -21 0 22
v -10 0 22
v -8 0 22
v -1 0 22
v 1 0 22
v -23 0 21
v -22 0 21
v -8 0 21
v -7 0 21
v 1 0 21
v 3 0 21
v -24 0 20
v -23 0 20
v -7 0 20
v -3 0 20
v 3 0 20
v 6 0 20
v -25 0 19
v -24 0 19
v 6 0 19
v 8 0 19
v -3 0 18
v -2 0 18
v -26 0 17
v -25 0 17
v -2 0 17
v -1 0 17
v -27 0 16
v -26 0 16
v -1 0 16
v 1 0 16
v -29 0 15
v -27 0 15
v 8 0 15
v 9 0 15
v -32 0 14
v -29 0 14
v 1 0 14
v 2 0 14
v 9 0 14
v 10 0 14
v 2 0 12
v 3 0 12
v 3 0 10
v 4 0 10
v 4 0 9
v 5 0 9
v 10 0 9
v 11 0 9
v 5 0 8
v 8 0 8
v 11 0 8
v 12 0 8
v 8 0 7
v 9 0 7
v 12 0 7
v 13 0 7
v 9 0 6
v 10 0 6
v 13 0 6
v 14 0 6
v 10 0 3
v 11 0 3
v 14 0 3
v 15 0 3
v 11 0 1
v 12 0 1
v 15 0 1
v 16 0 1
v 12 0 -0
v 13 0 -0
v 16 0 -0
v 17 0 -0
v 13 0 -1
v 14 0 -1
v 17 0 -1
v 21 0 -1
v 14 0 -2
v 15 0 -2
v 15 0 -3
v 16 0 -3
v 21 0 -3
v 22 0 -3
v 16 0 -4
v 17 0 -4
v 22 0 -5
v 23 0 -5
v 17 0 -6
v 18 0 -6
v 18 0 -7
v 19 0 -7
v 19 0 -8
v 20 0 -8
v 23 0 -9
v 24 0 -9
v 24 0 -10
v 25 0 -10
v 20 0 -11
v 21 0 -11
v 25 0 -12
v 26 0 -12
v 21 0 -13
v 22 0 -13
v 22 0 -14
v 23 0 -14
v 26 0 -15
v 27 0 -15
v 23 0 -16
v 24 0 -16
v 27 0 -17
v 28 0 -17
v 27 0 -27
v 28 0 -27
v -32 0 -32
v 24 0 -32
v 27 0 -32
v -23 1 29
v -18 1 29
v -25 1 28
v -23 1 28
v -18 1 28
v -7 1 28
v -28 1 27
v -25 1 27
v -7 1 27
v -6 1 27
v -32 1 26
v -28 1 26
v -6 1 26
v -5 1 26
v -5 1 25
v -4 1 25
v -20 1 24
v -12 1 24
v -4 1 24
v -3 1 24
v -21 1 23
v -20 1 23
v -12 1 23
v -10 1 23
v -3 1 23
v -1 1 23
v -22 1 22
v -21 1 22
v -10 1 22
v -8 1 22
v -1 1 22
v 1 1 22
v -23 1 21
v -22 1 21
v -8 1 21
v -7 1 21
v 1 1 21
v 3 1 21
v -24 1 20
v -23 1 20
v -7 1 20
v -3 1 20
v 3 1 20
v 6 1 20
v -25 1 19
v -24 1 19
v 6 1 19
v 8 1 19
v -3 1 18
v -2 1 18
v -26 1 17
v -25 1 17
v -2 1 17
v -1 1 17
v -27 1 16
v -26 1 16
v -1 1 16
v 1 1 16
v -29 1 15
v -27 1 15
v 8 1 15
v 9 1 15
v -32 1 14
v -29 1 14
v 1 1 14
v 2 1 14
v 9 1 14
v 10 1 14
v 2 1 12
v 3 1 12
v 3 1 10
v 4 1 10
v 4 1 9
v 5 1 9
v 10 1 9
v 11 1 9
v 5 1 8
v 8 1 8
v 11 1 8
v 12 1 8
v 8 1 7
v 9 1 7
v 12 1 7
v 13 1 7
v 9 1 6
v 10 1 6
v 13 1 6
v 14 1 6
v 10 1 3
v 11 1 3
v 14 1 3
v 15 1 3
v 11 1 1
v 12 1 1
v 15 1 1
v 16 1 1
v 12 1 -0
v 13 1 -0
v 16 1 -0
v 17 1 -0
v 13 1 -1
v 14 1 -1
v 17 1 -1
v 21 1 -1
v 14 1 -2
v 15 1 -2
v 15 1 -3
v 16 1 -3
v 21 1 -3
v 22 1 -3
v 16 1 -4
v 17 1 -4
v 22 1 -5
v 23 1 -5
v 17 1 -6
v 18 1 -6
v 18 1 -7
v 19 1 -7
v 19 1 -8
v 20 1 -8
v 23 1 -9
v 24 1 -9
v 24 1 -10
v 25 1 -10
v 20 1 -11
v 21 1 -11
v 25 1 -12
v 26 1 -12
v 21 1 -13
v 22 1 -13
v 22 1 -14
v 23 1 -14
v 26 1 -15
v 27 1 -15
v 23 1 -16
v 24 1 -16
v 27 1 -17
v 28 1 -17
v 27 1 -27
v 28 1 -27
v -32 1 -32
v 24 1 -32
v 27 1 -32

# faces
f 4/1/1 2/1/1 1/1/1
f 5/2/1 3/2/1 2/2/1
f 5/1/1 2/1/1 4/1/1
f 6/2/1 3/2/1 5/2/1
f 9/1/1 8/1/1 7/1/1
f 10/1/1 8/1/1 9/1/1
f 13/1/1 12/1/1 11/1/1
f 14/1/1 12/1/1 13/1/1
f 17/1/1 16/1/1 15/1/1
f 18/1/1 16/1/1 17/1/1
f 19/1/2 20/1/2 21/1/2
f 21/1/2 20/1/2 22/1/2
f 23/1/2 24/1/2 25/1/2
f 25/1/2 24/1/2 26/1/2
f 27/1/2 28/1/2 29/1/2
f 29/1/2 28/1/2 30/1/2
f 31/1/2 32/1/2 33/1/2
f 33/1/2 32/1/2 34/1/2
f 35/1/2 36/1/2 37/1/2
f 37/1/2 36/1/2 38/1/2
f 39/1/2 40/1/2 41/1/2
f 41/1/2 40/1/2 42/1/2
f 43/1/2 44/1/2 45/1/2
f 45/1/2 44/1/2 46/1/2
f 47/1/2 48/1/2 49/1/2
f 49/1/2 48/1/2 50/1/2
f 51/1/2 52/1/2 53/1/2
f 53/1/2 52/1/2 54/1/2
f 55/1/2 56/1/2 57/1/2
f 57/1/2 56/1/2 58/1/2
f 59/1/2 60/1/2 61/1/2
f 61/1/2 60/1/2 62/1/2
f 63/1/2 64/1/2 65/1/2
f 65/1/2 64/1/2 66/1/2
f 67/1/2 68/1/2 69/1/2
f 69/1/2 68/1/2 70/1/2
f 71/1/2 72/1/2 73/1/2
f 73/1/2 72/1/2 74/1/2
f 75/1/2 76/1/2 77/1/2
f 77/1/2 76/1/2 78/1/2
f 79/1/2 80/1/2 81/1/2
f 81/1/2 80/1/2 82/1/2
f 83/1/2 84/1/2 85/1/2
f 85/1/2 84/1/2 86/1/2
f 87/1/2 88/1/2 89/1/2
f 89/1/2 88/1/2 90/1/2
f 91/1/2 92/1/2 93/1/2
f 93/1/2 92/1/2 94/1/2
f 95/1/2 96/1/2 97/1/2
f 97/1/2 96/1/2 98/1/2
f 99/1/2 100/1/2 101/1/2
f 101/1/2 100/1/2 102/1/2
f 103/1/2 104/1/2 105/1/2
f 105/1/2 104/1/2 106/1/2
f 107/1/2 108/1/2 109/1/2
f 109/1/2 108/1/2 110/1/2
f 111/1/2 112/1/2 113/1/2
f 113/1/2 112/1/2 114/1/2
f 115/1/2 116/1/2 117/1/2
f 117/1/2 116/1/2 118/1/2
f 119/1/2 120/1/2 121/1/2
f 121/1/2 120/1/2 122/1/2
f 123/1/2 124/1/2 127/1/2
f 127/1/2 124/1/2 128/1/2
f 125/1/2 126/1/2 129/1/2
f 129/1/2 126/1/2 130/1/2
f 131/1/2 132/1/2 133/1/2
f 133/1/2 132/1/2 134/1/2
f 137/1/3 136/1/3 135/1/3
f 138/1/3 136/1/3 137/1/3
f 141/1/3 140/1/3 139/1/3
f 142/1/3 140/1/3 141/1/3
f 145/1/3 144/1/3 143/1/3
f 146/1/3 144/1/3 145/1/3
f 149/1/3 148/1/3 147/1/3
f 150/1/3 148/1/3 149/1/3
f 153/1/3 152/1/3 151/1/3
f 154/1/3 152/1/3 153/1/3
f 157/1/3 156/1/3 155/1/3
f 158/1/3 156/1/3 157/1/3
f 161/1/3 160/1/3 159/1/3
f 162/1/3 160/1/3 161/1/3
f 165/1/3 164/1/3 163/1/3
f 166/1/3 164/1/3 165/1/3
f 169/1/3 168/1/3 167/1/3
f 170/1/3 168/1/3 169/1/3
f 173/1/3 172/1/3 171/1/3
f 174/1/3 172/1/3 173/1/3
f 177/1/3 176/1/3 175/1/3
f 178/1/3 176/1/3 177/1/3
f 181/1/3 180/1/3 179/1/3
f 182/1/3 180/1/3 181/1/3
f 185/1/3 184/1/3 183/1/3
f 186/1/3 184/1/3 185/1/3
f 189/1/3 188/1/3 187/1/3
f 190/1/3 188/1/3 189/1/3
f 193/1/3 192/1/3 191/1/3
f 194/1/3 192/1/3 193/1/3
f 197/1/3 196/1/3 195/1/3
f 198/1/3 196/1/3 197/1/3
f 201/1/3 200/1/3 199/1/3
f 202/1/3 200/1/3 201/1/3
f 205/1/3 204/1/3 203/1/3
f 206/1/3 204/1/3 205/1/3
f 209/1/3 208/1/3 207/1/3
f 210/1/3 208/1/3 209/1/3
f 213/1/3 212/1/3 211/1/3
f 214/1/3 212/1/3 213/1/3
f 217/1/3 216/1/3 215/1/3
f 218/1/3 216/1/3 217/1/3
f 221/1/3 220/1/3 219/1/3
f 222/1/3 220/1/3 221/1/3
f 225/1/3 224/1/3 223/1/3
f 226/1/3 224/1/3 225/1/3
f 229/1/3 228/1/3 227/1/3
f 230/1/3 228/1/3 229/1/3
f 233/1/3 232/1/3 231/1/3
f 234/1/3 232/1/3 233/1/3
f 237/1/3 236/1/3 235/1/3
f 238/1/3 236/1/3 237/1/3
f 241/1/3 240/1/3 239/1/3
f 242/1/3 240/1/3 241/1/3
f 245/1/3 244/1/3 243/1/3
f 246/1/3 244/1/3 245/1/3
f 249/1/3 248/1/3 247/1/3
f 250/1/3 248/1/3 249/1/3
f 253/1/3 252/1/3 251/1/3
f 254/1/3 252/1/3 253/1/3
f 257/1/3 256/1/3 255/1/3
f 258/1/3 256/1/3 257/1/3
f 259/1/4 260/1/4 261/1/4
f 261/1/4 260/1/4 262/1/4
f 263/2/4 264/2/4 265/2/4
f 265/2/4 264/2/4 266/2/4
f 265/1/4 266/1/4 267/1/4
f 267/1/4 266/1/4 268/1/4
f 272/1/5 270/1/5 269/1/5
f 273/1/5 270/1/5 272/1/5
f 276/1/5 272/1/5 271/1/5
f 276/1/5 274/1/5 273/1/5
f 276/1/5 273/1/5 272/1/5
f 277/1/5 274/1/5 276/1/5
f 280/1/5 276/1/5 275/1/5
f 280/1/5 278/1/5 277/1/5
f 280/1/5 277/1/5 276/1/5
f 281/1/5 278/1/5 280/1/5
f 283/1/5 280/1/5 279/1/5
f 283/1/5 282/1/5 281/1/5
f 283/1/5 281/1/5 280/1/5
f 285/1/5 283/1/5 279/1/5
f 285/1/5 284/1/5 283/1/5
f 286/1/5 284/1/5 285/1/5
f 287/1/5 284/1/5 286/1/5
f 289/1/5 285/1/5 279/1/5
f 290/2/5 286/2/5 285/2/5
f 290/1/5 285/1/5 289/1/5
f 291/1/5 288/1/5 287/1/5
f 291/2/5 286/2/5 290/2/5
f 291/1/5 287/1/5 286/1/5
f 292/1/5 288/1/5 291/1/5
f 293/1/5 288/1/5 292/1/5
f 295/1/5 289/1/5 279/1/5
f 296/2/5 290/2/5 289/2/5
f 296/1/5 289/1/5 295/1/5
f 296/2/5 291/2/5 290/2/5
f 296/2/5 292/2/5 291/2/5
f 297/1/5 294/1/5 293/1/5
f 297/2/5 292/2/5 296/2/5
f 297/1/5 293/1/5 292/1/5
f 298/1/5 294/1/5 297/1/5
f 299/1/5 294/1/5 298/1/5
f 301/1/5 295/1/5 279/1/5
f 302/2/5 296/2/5 295/2/5
f 302/1/5 295/1/5 301/1/5
f 302/2/5 297/2/5 296/2/5
f 302/2/5 298/2/5 297/2/5
f 303/1/5 300/1/5 299/1/5
f 303/2/5 298/2/5 302/2/5
f 303/1/5 299/1/5 298/1/5
f 304/1/5 300/1/5 303/1/5
f 305/1/5 300/1/5 304/1/5
f 307/1/5 301/1/5 279/1/5
f 308/2/5 302/2/5 301/2/5
f 308/1/5 301/1/5 307/1/5
f 308/2/5 303/2/5 302/2/5
f 308/2/5 304/2/5 303/2/5
f 309/1/5 306/1/5 305/1/5
f 309/2/5 304/2/5 308/2/5
f 309/1/5 305/1/5 304/1/5
f 310/1/5 306/1/5 309/1/5
f 311/1/5 306/1/5 310/1/5
f 313/1/5 307/1/5 279/1/5
f 314/2/5 308/2/5 307/2/5
f 314/1/5 307/1/5 313/1/5
f 314/2/5 309/2/5 308/2/5
f 314/2/5 310/2/5 309/2/5
f 315/1/5 312/1/5 311/1/5
f 315/1/5 311/1/5 310/1/5
f 317/2/5 310/2/5 314/2/5
f 317/1/5 316/1/5 315/1/5
f 317/1/5 315/1/5 310/1/5
f 317/2/5 314/2/5 313/2/5
f 318/1/5 316/1/5 317/1/5
f 319/1/5 313/1/5 279/1/5
f 320/2/5 317/2/5 313/2/5
f 320/1/5 313/1/5 319/1/5
f 320/2/5 318/2/5 317/2/5
f 321/1/5 316/1/5 318/1/5
f 321/2/5 318/2/5 320/2/5
f 322/1/5 316/1/5 321/1/5
f 323/1/5 319/1/5 279/1/5
f 324/2/5 320/2/5 319/2/5
f 324/1/5 319/1/5 323/1/5
f 324/2/5 321/2/5 320/2/5
f 324/2/5 322/2/5 321/2/5
f 325/1/5 316/1/5 322/1/5
f 325/2/5 322/2/5 324/2/5
f 326/1/5 316/1/5 325/1/5
f 327/1/5 323/1/5 279/1/5
f 328/2/5 324/2/5 323/2/5
f 328/1/5 323/1/5 327/1/5
f 328/2/5 325/2/5 324/2/5
f 328/2/5 326/2/5 325/2/5
f 329/1/5 316/1/5 326/1/5
f 331/1/5 327/1/5 279/1/5
f 332/2/5 328/2/5 327/2/5
f 332/1/5 327/1/5 331/1/5
f 333/2/5 326/2/5 328/2/5
f 333/2/5 328/2/5 332/2/5
f 333/1/5 330/1/5 329/1/5
f 333/1/5 329/1/5 326/1/5
f 334/1/5 330/1/5 333/1/5
f 335/1/5 330/1/5 334/1/5
f 337/2/5 332/2/5 331/2/5
f 337/1/5 336/1/5 335/1/5
f 337/1/5 335/1/5 334/1/5
f 337/2/5 334/2/5 333/2/5
f 337/2/5 333/2/5 332/2/5
f 338/1/5 336/1/5 337/1/5
f 339/2/5 338/2/5 337/2/5
f 339/1/5 336/1/5 338/1/5
f 340/1/5 336/1/5 339/1/5
f 341/2/5 340/2/5 339/2/5
f 341/1/5 336/1/5 340/1/5
f 342/1/5 336/1/5 341/1/5
f 343/1/5 336/1/5 342/1/5
f 345/2/5 342/2/5 341/2/5
f 345/1/5 344/1/5 343/1/5
f 345/1/5 343/1/5 342/1/5
f 346/1/5 344/1/5 345/1/5
f 347/1/5 344/1/5 346/1/5
f 349/2/5 346/2/5 345/2/5
f 349/1/5 348/1/5 347/1/5
f 349/1/5 347/1/5 346/1/5
f 350/1/5 348/1/5 349/1/5
f 351/1/5 348/1/5 350/1/5
f 353/2/5 350/2/5 349/2/5
f 353/1/5 352/1/5 351/1/5
f 353/1/5 351/1/5 350/1/5
f 354/1/5 352/1/5 353/1/5
f 355/1/5 352/1/5 354/1/5
f 357/2/5 354/2/5 353/2/5
f 357/1/5 356/1/5 355/1/5
f 357/1/5 355/1/5 354/1/5
f 358/1/5 356/1/5 357/1/5
f 359/1/5 356/1/5 358/1/5
f 361/2/5 358/2/5 357/2/5
f 361/1/5 360/1/5 359/1/5
f 361/1/5 359/1/5 358/1/5
f 362/1/5 360/1/5 361/1/5
f 363/1/5 360/1/5 362/1/5
f 365/2/5 362/2/5 361/2/5
f 365/1/5 364/1/5 363/1/5
f 365/1/5 363/1/5 362/1/5
f 366/1/5 364/1/5 365/1/5
f 367/1/5 364/1/5 366/1/5
f 369/2/5 366/2/5 365/2/5
f 369/1/5 368/1/5 367/1/5
f 369/1/5 367/1/5 366/1/5
f 370/1/5 368/1/5 369/1/5
f 371/1/5 368/1/5 370/1/5
f 373/2/5 370/2/5 369/2/5
f 373/1/5 372/1/5 371/1/5
f 373/1/5 371/1/5 370/1/5
f 374/1/5 372/1/5 373/1/5
f 375/2/5 374/2/5 373/2/5
f 375/1/5 372/1/5 374/1/5
f 376/1/5 372/1/5 375/1/5
f 377/1/5 372/1/5 376/1/5
f 379/2/5 376/2/5 375/2/5
f 379/1/5 378/1/5 377/1/5
f 379/1/5 377/1/5 376/1/5
f 380/1/5 378/1/5 379/1/5
f 381/1/5 378/1/5 380/1/5
f 383/2/5 380/2/5 379/2/5
f 383/1/5 382/1/5 381/1/5
f 383/1/5 381/1/5 380/1/5
f 384/1/5 382/1/5 383/1/5
f 385/2/5 384/2/5 383/2/5
f 385/1/5 382/1/5 384/1/5
f 386/1/5 382/1/5 385/1/5
f 387/2/5 386/2/5 385/2/5
f 387/1/5 382/1/5 386/1/5
f 388/1/5 382/1/5 387/1/5
f 389/1/5 382/1/5 388/1/5
f 391/1/5 390/1/5 389/1/5
f 393/2/5 388/2/5 387/2/5
f 393/1/5 392/1/5 391/1/5
f 393/1/5 391/1/5 389/1/5
f 393/1/5 389/1/5 388/1/5
f 394/1/5 392/1/5 393/1/5
f 395/1/5 392/1/5 394/1/5
f 397/2/5 394/2/5 393/2/5
f 397/1/5 396/1/5 395/1/5
f 397/1/5 395/1/5 394/1/5
f 398/1/5 396/1/5 397/1/5
f 399/2/5 398/2/5 397/2/5
f 399/1/5 396/1/5 398/1/5
f 400/1/5 396/1/5 399/1/5
f 401/1/5 396/1/5 400/1/5
f 403/2/5 400/2/5 399/2/5
f 403/1/5 402/1/5 401/1/5
f 403/1/5 401/1/5 400/1/5
f 404/1/5 402/1/5 403/1/5
f 405/1/5 402/1/5 404/1/5
f 407/1/5 405/1/5 404/1/5
f 407/1/5 406/1/5 405/1/5
f 408/1/5 406/1/5 407/1/5
f 409/2/5 337/2/5 331/2/5
f 409/2/5 339/2/5 337/2/5
f 409/2/5 341/2/5 339/2/5
f 409/2/5 404/2/5 403/2/5
f 409/2/5 403/2/5 399/2/5
f 409/2/5 399/2/5 397/2/5
f 409/2/5 397/2/5 393/2/5
f 409/2/5 393/2/5 387/2/5
f 409/2/5 387/2/5 385/2/5
f 409/2/5 385/2/5 383/2/5
f 409/2/5 383/2/5 379/2/5
f 409/2/5 379/2/5 375/2/5
f 409/2/5 375/2/5 373/2/5
f 409/2/5 373/2/5 369/2/5
f 409/2/5 369/2/5 365/2/5
f 409/2/5 365/2/5 361/2/5
f 409/2/5 361/2/5 357/2/5
f 409/2/5 357/2/5 353/2/5
f 409/2/5 353/2/5 349/2/5
f 409/2/5 349/2/5 345/2/5
f 409/2/5 345/2/5 341/2/5
f 410/1/5 407/1/5 404/1/5
f 410/2/5 404/2/5 409/2/5
f 411/1/5 407/1/5 410/1/5
f 412/1/6 413/1/6 415/1/6
f 415/1/6 413/1/6 416/1/6
f 414/1/6 415/1/6 419/1/6
f 416/1/6 417/1/6 419/1/6
f 415/1/6 416/1/6 419/1/6
f 419/1/6 417/1/6 420/1/6
f 418/1/6 419/1/6 423/1/6
f 420/1/6 421/1/6 423/1/6
f 419/1/6 420/1/6 423/1/6
f 423/1/6 421/1/6 424/1/6
f 422/1/6 423/1/6 426/1/6
f 424/1/6 425/1/6 426/1/6
f 423/1/6 424/1/6 426/1/6
f 422/1/6 426/1/6 428/1/6
f 426/1/6 427/1/6 428/1/6
f 428/1/6 427/1/6 429/1/6
f 429/1/6 427/1/6 430/1/6
f 422/1/6 428/1/6 432/1/6
f 428/2/6 429/2/6 433/2/6
f 432/1/6 428/1/6 433/1/6
f 430/1/6 431/1/6 434/1/6
f 433/2/6 429/2/6 434/2/6
f 429/1/6 430/1/6 434/1/6
f 434/1/6 431/1/6 435/1/6
f 435/1/6 431/1/6 436/1/6
f 422/1/6 432/1/6 438/1/6
f 432/2/6 433/2/6 439/2/6
f 438/1/6 432/1/6 439/1/6
f 433/2/6 434/2/6 439/2/6
f 434/2/6 435/2/6 439/2/6
f 436/1/6 437/1/6 440/1/6
f 439/2/6 435/2/6 440/2/6
f 435/1/6 436/1/6 440/1/6
f 440/1/6 437/1/6 441/1/6
f 441/1/6 437/1/6 442/1/6
f 422/1/6 438/1/6 444/1/6
f 438/2/6 439/2/6 445/2/6
f 444/1/6 438/1/6 445/1/6
f 439/2/6 440/2/6 445/2/6
f 440/2/6 441/2/6 445/2/6
f 442/1/6 443/1/6 446/1/6
f 445/2/6 441/2/6 446/2/6
f 441/1/6 442/1/6 446/1/6
f 446/1/6 443/1/6 447/1/6
f 447/1/6 443/1/6 448/1/6
f 422/1/6 444/1/6 450/1/6
f 444/2/6 445/2/6 451/2/6
f 450/1/6 444/1/6 451/1/6
f 445/2/6 446/2/6 451/2/6
f 446/2/6 447/2/6 451/2/6
f 448/1/6 449/1/6 452/1/6
f 451/2/6 447/2/6 452/2/6
f 447/1/6 448/1/6 452/1/6
f 452/1/6 449/1/6 453/1/6
f 453/1/6 449/1/6 454/1/6
f 422/1/6 450/1/6 456/1/6
f 450/2/6 451/2/6 457/2/6
f 456/1/6 450/1/6 457/1/6
f 451/2/6 452/2/6 457/2/6
f 452/2/6 453/2/6 457/2/6
f 454/1/6 455/1/6 458/1/6
f 453/1/6 454/1/6 458/1/6
f 457/2/6 453/2/6 460/2/6
f 458/1/6 459/1/6 460/1/6
f 453/1/6 458/1/6 460/1/6
f 456/2/6 457/2/6 460/2/6
f 460/1/6 459/1/6 461/1/6
f 422/1/6 456/1/6 462/1/6
f 456/2/6 460/2/6 463/2/6
f 462/1/6 456/1/6 463/1/6
f 460/2/6 461/2/6 463/2/6
f 461/1/6 459/1/6 464/1/6
f 463/2/6 461/2/6 464/2/6
f 464/1/6 459/1/6 465/1/6
f 422/1/6 462/1/6 466/1/6
f 462/2/6 463/2/6 467/2/6
f 466/1/6 462/1/6 467/1/6
f 463/2/6 464/2/6 467/2/6
f 464/2/6 465/2/6 467/2/6
f 465/1/6 459/1/6 468/1/6
f 467/2/6 465/2/6 468/2/6
f 468/1/6 459/1/6 469/1/6
f 422/1/6 466/1/6 470/1/6
f 466/2/6 467/2/6 471/2/6
f 470/1/6 466/1/6 471/1/6
f 467/2/6 468/2/6 471/2/6
f 468/2/6 469/2/6 471/2/6
f 469/1/6 459/1/6 472/1/6
f 422/1/6 470/1/6 474/1/6
f 470/2/6 471/2/6 475/2/6
f 474/1/6 470/1/6 475/1/6
f 471/2/6 469/2/6 476/2/6
f 475/2/6 471/2/6 476/2/6
f 472/1/6 473/1/6 476/1/6
f 469/1/6 472/1/6 476/1/6
f 476/1/6 473/1/6 477/1/6
f 477/1/6 473/1/6 478/1/6
f 474/2/6 475/2/6 480/2/6
f 478/1/6 479/1/6 480/1/6
f 477/1/6 478/1/6 480/1/6
f 476/2/6 477/2/6 480/2/6
f 475/2/6 476/2/6 480/2/6
f 480/1/6 479/1/6 481/1/6
f 480/2/6 481/2/6 482/2/6
f 481/1/6 479/1/6 482/1/6
f 482/1/6 479/1/6 483/1/6
f 482/2/6 483/2/6 484/2/6
f 483/1/6 479/1/6 484/1/6
f 484/1/6 479/1/6 485/1/6
f 485/1/6 479/1/6 486/1/6
f 484/2/6 485/2/6 488/2/6
f 486/1/6 487/1/6 488/1/6
f 485/1/6 486/1/6 488/1/6
f 488/1/6 487/1/6 489/1/6
f 489/1/6 487/1/6 490/1/6
f 488/2/6 489/2/6 492/2/6
f 490/1/6 491/1/6 492/1/6
f 489/1/6 490/1/6 492/1/6
f 492/1/6 491/1/6 493/1/6
f 493/1/6 491/1/6 494/1/6
f 492/2/6 493/2/6 496/2/6
f 494/1/6 495/1/6 496/1/6
f 493/1/6 494/1/6 496/1/6
f 496/1/6 495/1/6 497/1/6
f 497/1/6 495/1/6 498/1/6
f 496/2/6 497/2/6 500/2/6
f 498/1/6 499/1/6 500/1/6
f 497/1/6 498/1/6 500/1/6
f 500/1/6 499/1/6 501/1/6
f 501/1/6 499/1/6 502/1/6
f 500/2/6 501/2/6 504/2/6
f 502/1/6 503/1/6 504/1/6
f 501/1/6 502/1/6 504/1/6
f 504/1/6 503/1/6 505/1/6
f 505/1/6 503/1/6 506/1/6
f 504/2/6 505/2/6 508/2/6
f 506/1/6 507/1/6 508/1/6
f 505/1/6 506/1/6 508/1/6
f 508/1/6 507/1/6 509/1/6
f 509/1/6 507/1/6 510/1/6
f 508/2/6 509/2/6 512/2/6
f 510/1/6 511/1/6 512/1/6
f 509/1/6 510/1/6 512/1/6
f 512/1/6 511/1/6 513/1/6
f 513/1/6 511/1/6 514/1/6
f 512/2/6 513/2/6 516/2/6
f 514/1/6 515/1/6 516/1/6
f 513/1/6 514/1/6 516/1/6
f 516/1/6 515/1/6 517/1/6
f 516/2/6 517/2/6 518/2/6
f 517/1/6 515/1/6 518/1/6
f 518/1/6 515/1/6 519/1/6
f 519/1/6 515/1/6 520/1/6
f 518/2/6 519/2/6 522/2/6
f 520/1/6 521/1/6 522/1/6
f 519/1/6 520/1/6 522/1/6
f 522/1/6 521/1/6 523/1/6
f 523/1/6 521/1/6 524/1/6
f 522/2/6 523/2/6 526/2/6
f 524/1/6 525/1/6 526/1/6
f 523/1/6 524/1/6 526/1/6
f 526/1/6 525/1/6 527/1/6
f 526/2/6 527/2/6 528/2/6
f 527/1/6 525/1/6 528/1/6
f 528/1/6 525/1/6 529/1/6
f 528/2/6 529/2/6 530/2/6
f 529/1/6 525/1/6 530/1/6
f 530/1/6 525/1/6 531/1/6
f 531/1/6 525/1/6 532/1/6
f 532/1/6 533/1/6 534/1/6
f 530/2/6 531/2/6 536/2/6
f 534/1/6 535/1/6 536/1/6
f 532/1/6 534/1/6 536/1/6
f 531/1/6 532/1/6 536/1/6
f 536/1/6 535/1/6 537/1/6
f 537/1/6 535/1/6 538/1/6
f 536/2/6 537/2/6 540/2/6
f 538/1/6 539/1/6 540/1/6
f 537/1/6 538/1/6 540/1/6
f 540/1/6 539/1/6 541/1/6
f 540/2/6 541/2/6 542/2/6
f 541/1/6 539/1/6 542/1/6
f 542/1/6 539/1/6 543/1/6
f 543/1/6 539/1/6 544/1/6
f 542/2/6 543/2/6 546/2/6
f 544/1/6 545/1/6 546/1/6
f 543/1/6 544/1/6 546/1/6
f 546/1/6 545/1/6 547/1/6
f 547/1/6 545/1/6 548/1/6
f 547/1/6 548/1/6 550/1/6
f 548/1/6 549/1/6 550/1/6
f 550/1/6 549/1/6 551/1/6
f 474/2/6 480/2/6 552/2/6
f 480/2/6 482/2/6 552/2/6
f 482/2/6 484/2/6 552/2/6
f 546/2/6 547/2/6 552/2/6
f 542/2/6 546/2/6 552/2/6
f 540/2/6 542/2/6 552/2/6
f 536/2/6 540/2/6 552/2/6
f 530/2/6 536/2/6 552/2/6
f 528/2/6 530/2/6 552/2/6
f 526/2/6 528/2/6 552/2/6
f 522/2/6 526/2/6 552/2/6
f 518/2/6 522/2/6 552/2/6
f 516/2/6 518/2/6 552/2/6
f 512/2/6 516/2/6 552/2/6
f 508/2/6 512/2/6 552/2/6
f 504/2/6 508/2/6 552/2/6
f 500/2/6 504/2/6 552/2/6
f 496/2/6 500/2/6 552/2/6
f 492/2/6 496/2/6 552/2/6
f 488/2/6 492/2/6 552/2/6
f 484/2/6 488/2/6 552/2/6
f 547/1/6 550/1/6 553/1/6
f 552/2/6 547/2/6 553/2/6
f 553/1/6 550/1/6 554/1/6
